<?xml version="1.0" encoding="UTF-8"?>
<!--Generator: Apple Native CoreSVG 175.5-->
<!DOCTYPE svg
PUBLIC "-//W3C//DTD SVG 1.1//EN"
       "http://www.w3.org/Graphics/SVG/1.1/DTD/svg11.dtd">
<svg version="1.1" xmlns="http://www.w3.org/2000/svg" xmlns:xlink="http://www.w3.org/1999/xlink" width="3300" height="2200">
 <!--glyph: "", point size: 100.0, font version: "18.0d12e2", template writer version: "101"-->
 <style>.monochrome-0 {fill:#000000}
.monochrome-1 {fill:#FFFFFF;opacity:0.0;-sfsymbols-clear-behind:true}

.multicolor-0:custom {fill:#5865F2}
.multicolor-1:tintColor {fill:#007AFF;opacity:0.0;-sfsymbols-clear-behind:true}

.hierarchical-0:secondary {fill:#4D4D4D}
.hierarchical-1:primary {fill:#212121}

.SFSymbolsPreview5865F2 {fill:#5865F2;opacity:1.0}
.SFSymbolsPreviewFFFFFF {fill:#FFFFFF;opacity:1.0}
</style>
 <g id="Notes">
  <rect height="2200" id="artboard" style="fill:white;opacity:1" width="3300" x="0" y="0"/>
  <line style="fill:none;stroke:black;opacity:1;stroke-width:0.5;" x1="263" x2="3036" y1="292" y2="292"/>
  <text style="stroke:none;fill:black;font-family:sans-serif;font-size:13;font-weight:bold;" transform="matrix(1 0 0 1 263 322)">Weight/Scale Variations</text>
  <text style="stroke:none;fill:black;font-family:sans-serif;font-size:13;text-anchor:middle;" transform="matrix(1 0 0 1 559.711 322)">Ultralight</text>
  <text style="stroke:none;fill:black;font-family:sans-serif;font-size:13;text-anchor:middle;" transform="matrix(1 0 0 1 856.422 322)">Thin</text>
  <text style="stroke:none;fill:black;font-family:sans-serif;font-size:13;text-anchor:middle;" transform="matrix(1 0 0 1 1153.13 322)">Light</text>
  <text style="stroke:none;fill:black;font-family:sans-serif;font-size:13;text-anchor:middle;" transform="matrix(1 0 0 1 1449.84 322)">Regular</text>
  <text style="stroke:none;fill:black;font-family:sans-serif;font-size:13;text-anchor:middle;" transform="matrix(1 0 0 1 1746.56 322)">Medium</text>
  <text style="stroke:none;fill:black;font-family:sans-serif;font-size:13;text-anchor:middle;" transform="matrix(1 0 0 1 2043.27 322)">Semibold</text>
  <text style="stroke:none;fill:black;font-family:sans-serif;font-size:13;text-anchor:middle;" transform="matrix(1 0 0 1 2339.98 322)">Bold</text>
  <text style="stroke:none;fill:black;font-family:sans-serif;font-size:13;text-anchor:middle;" transform="matrix(1 0 0 1 2636.69 322)">Heavy</text>
  <text style="stroke:none;fill:black;font-family:sans-serif;font-size:13;text-anchor:middle;" transform="matrix(1 0 0 1 2933.4 322)">Black</text>
  <line style="fill:none;stroke:black;opacity:1;stroke-width:0.5;" x1="263" x2="3036" y1="1903" y2="1903"/>
  <g transform="matrix(1 0 0 1 263 1933)">
   <path d="M9.24805 0.830078C13.5547 0.830078 17.1387-2.74414 17.1387-7.05078C17.1387-11.3574 13.5449-14.9316 9.23828-14.9316C4.94141-14.9316 1.36719-11.3574 1.36719-7.05078C1.36719-2.74414 4.95117 0.830078 9.24805 0.830078ZM9.24805-0.654297C5.70312-0.654297 2.87109-3.49609 2.87109-7.05078C2.87109-10.6055 5.69336-13.4473 9.23828-13.4473C12.793-13.4473 15.6445-10.6055 15.6445-7.05078C15.6445-3.49609 12.8027-0.654297 9.24805-0.654297ZM5.6543-7.05078C5.6543-6.62109 5.95703-6.32812 6.40625-6.32812L8.50586-6.32812L8.50586-4.20898C8.50586-3.76953 8.79883-3.4668 9.22852-3.4668C9.67773-3.4668 9.9707-3.76953 9.9707-4.20898L9.9707-6.32812L12.0898-6.32812C12.5293-6.32812 12.832-6.62109 12.832-7.05078C12.832-7.49023 12.5293-7.79297 12.0898-7.79297L9.9707-7.79297L9.9707-9.90234C9.9707-10.3516 9.67773-10.6543 9.22852-10.6543C8.79883-10.6543 8.50586-10.3516 8.50586-9.90234L8.50586-7.79297L6.40625-7.79297C5.95703-7.79297 5.6543-7.49023 5.6543-7.05078Z"/>
  </g>
  <g transform="matrix(1 0 0 1 281.867 1933)">
   <path d="M11.709 2.91016C17.1582 2.91016 21.6699-1.61133 21.6699-7.05078C21.6699-12.5 17.1484-17.0117 11.6992-17.0117C6.25977-17.0117 1.74805-12.5 1.74805-7.05078C1.74805-1.61133 6.26953 2.91016 11.709 2.91016ZM11.709 1.25C7.09961 1.25 3.41797-2.44141 3.41797-7.05078C3.41797-11.6602 7.08984-15.3516 11.6992-15.3516C16.3086-15.3516 20.0098-11.6602 20.0098-7.05078C20.0098-2.44141 16.3184 1.25 11.709 1.25ZM7.17773-7.05078C7.17773-6.57227 7.50977-6.25 8.00781-6.25L10.8789-6.25L10.8789-3.36914C10.8789-2.88086 11.2109-2.53906 11.6895-2.53906C12.1777-2.53906 12.5195-2.87109 12.5195-3.36914L12.5195-6.25L15.4004-6.25C15.8887-6.25 16.2305-6.57227 16.2305-7.05078C16.2305-7.53906 15.8887-7.88086 15.4004-7.88086L12.5195-7.88086L12.5195-10.752C12.5195-11.25 12.1777-11.5918 11.6895-11.5918C11.2109-11.5918 10.8789-11.25 10.8789-10.752L10.8789-7.88086L8.00781-7.88086C7.50977-7.88086 7.17773-7.53906 7.17773-7.05078Z"/>
  </g>
  <g transform="matrix(1 0 0 1 305.646 1933)">
   <path d="M14.9707 5.66406C21.9336 5.66406 27.6953-0.0976562 27.6953-7.05078C27.6953-14.0137 21.9238-19.7754 14.9609-19.7754C8.00781-19.7754 2.25586-14.0137 2.25586-7.05078C2.25586-0.0976562 8.01758 5.66406 14.9707 5.66406ZM14.9707 3.84766C8.93555 3.84766 4.08203-1.01562 4.08203-7.05078C4.08203-13.0957 8.92578-17.9492 14.9609-17.9492C21.0059-17.9492 25.8691-13.0957 25.8691-7.05078C25.8691-1.01562 21.0156 3.84766 14.9707 3.84766ZM9.19922-7.05078C9.19922-6.5332 9.57031-6.17188 10.1172-6.17188L14.0625-6.17188L14.0625-2.2168C14.0625-1.67969 14.4336-1.29883 14.9512-1.29883C15.4883-1.29883 15.8594-1.66992 15.8594-2.2168L15.8594-6.17188L19.8145-6.17188C20.3516-6.17188 20.7324-6.5332 20.7324-7.05078C20.7324-7.59766 20.3613-7.96875 19.8145-7.96875L15.8594-7.96875L15.8594-11.9141C15.8594-12.4609 15.4883-12.8418 14.9512-12.8418C14.4336-12.8418 14.0625-12.4609 14.0625-11.9141L14.0625-7.96875L10.1172-7.96875C9.57031-7.96875 9.19922-7.59766 9.19922-7.05078Z"/>
  </g>
  <text style="stroke:none;fill:black;font-family:sans-serif;font-size:13;font-weight:bold;" transform="matrix(1 0 0 1 263 1953)">Design Variations</text>
  <text style="stroke:none;fill:black;font-family:sans-serif;font-size:13;" transform="matrix(1 0 0 1 263 1971)">Symbols are supported in up to nine weights and three scales.</text>
  <text style="stroke:none;fill:black;font-family:sans-serif;font-size:13;" transform="matrix(1 0 0 1 263 1989)">For optimal layout with text and other symbols, vertically align</text>
  <text style="stroke:none;fill:black;font-family:sans-serif;font-size:13;" transform="matrix(1 0 0 1 263 2007)">symbols with the adjacent text.</text>
  <line style="fill:none;stroke:#00AEEF;stroke-width:0.5;opacity:1.0;" x1="776" x2="776" y1="1919" y2="1933"/>
  <g transform="matrix(1 0 0 1 776 1933)">
   <path d="M3.31055 0.15625C3.82812 0.15625 4.08203-0.0390625 4.26758-0.585938L5.52734-4.0332L11.2891-4.0332L12.5488-0.585938C12.7344-0.0390625 12.9883 0.15625 13.4961 0.15625C14.0137 0.15625 14.3457-0.15625 14.3457-0.644531C14.3457-0.810547 14.3164-0.966797 14.2383-1.17188L9.6582-13.3691C9.43359-13.9648 9.0332-14.2676 8.4082-14.2676C7.80273-14.2676 7.39258-13.9746 7.17773-13.3789L2.59766-1.16211C2.51953-0.957031 2.49023-0.800781 2.49023-0.634766C2.49023-0.146484 2.80273 0.15625 3.31055 0.15625ZM6.00586-5.51758L8.37891-12.0898L8.42773-12.0898L10.8008-5.51758Z"/>
  </g>
  <line style="fill:none;stroke:#00AEEF;stroke-width:0.5;opacity:1.0;" x1="793.197" x2="793.197" y1="1919" y2="1933"/>
  <text style="stroke:none;fill:black;font-family:sans-serif;font-size:13;font-weight:bold;" transform="matrix(1 0 0 1 776 1953)">Margins</text>
  <text style="stroke:none;fill:black;font-family:sans-serif;font-size:13;" transform="matrix(1 0 0 1 776 1971)">Leading and trailing margins on the left and right side of each symbol</text>
  <text style="stroke:none;fill:black;font-family:sans-serif;font-size:13;" transform="matrix(1 0 0 1 776 1989)">can be adjusted by modifying the x-location of the margin guidelines.</text>
  <text style="stroke:none;fill:black;font-family:sans-serif;font-size:13;" transform="matrix(1 0 0 1 776 2007)">Modifications are automatically applied proportionally to all</text>
  <text style="stroke:none;fill:black;font-family:sans-serif;font-size:13;" transform="matrix(1 0 0 1 776 2025)">scales and weights.</text>
  <g transform="matrix(1 0 0 1 1289 1933)">
   <path d="M2.8418 1.86523L4.54102 3.57422C5.40039 4.44336 6.38672 4.38477 7.31445 3.35938L18.0078-8.42773L17.041-9.4043L6.42578 2.27539C6.07422 2.67578 5.74219 2.77344 5.27344 2.30469L4.10156 1.14258C3.63281 0.683594 3.74023 0.341797 4.14062-0.0195312L15.6152-10.8203L14.6387-11.7871L3.04688-0.898438C2.06055 0.0195312 1.98242 0.996094 2.8418 1.86523ZM9.25781-16.3281C8.83789-15.918 8.80859-15.3418 9.04297-14.9512C9.27734-14.5898 9.73633-14.3555 10.3809-14.5215C11.8457-14.8633 13.3691-14.9219 14.7949-13.9844L14.209-12.5293C13.8672-11.6992 14.043-11.1133 14.5801-10.5664L16.875-8.25195C17.3633-7.76367 17.7734-7.74414 18.3398-7.8418L19.4043-8.03711L20.0684-7.36328L20.0293-6.80664C19.9902-6.30859 20.1172-5.92773 20.6055-5.44922L21.3672-4.70703C21.8457-4.22852 22.4609-4.19922 22.9297-4.66797L25.8398-7.58789C26.3086-8.05664 26.2891-8.65234 25.8105-9.13086L25.0391-9.89258C24.5605-10.3711 24.1895-10.5273 23.7109-10.4883L23.1348-10.4395L22.4902-11.0742L22.7344-12.1973C22.8613-12.7637 22.7051-13.2031 22.1191-13.7891L19.9219-15.9766C16.582-19.2969 12.1484-19.2188 9.25781-16.3281ZM10.752-15.957C13.1836-17.7344 16.4746-17.4316 18.7012-15.2051L21.1328-12.793C21.3672-12.5586 21.4062-12.373 21.3379-12.0312L21.0156-10.5469L22.5195-9.0625L23.5059-9.12109C23.7598-9.13086 23.8379-9.11133 24.0332-8.91602L24.6094-8.33984L22.168-5.89844L21.5918-6.47461C21.3965-6.66992 21.3672-6.74805 21.377-7.01172L21.4453-7.98828L19.9512-9.47266L18.4277-9.21875C18.1055-9.15039 17.959-9.17969 17.7148-9.41406L15.7129-11.416C15.459-11.6504 15.4297-11.8164 15.5859-12.1875L16.4648-14.2773C14.9023-15.7324 12.8711-16.3574 10.8398-15.7617C10.6836-15.7227 10.625-15.8496 10.752-15.957Z"/>
  </g>
  <text style="stroke:none;fill:black;font-family:sans-serif;font-size:13;font-weight:bold;" transform="matrix(1 0 0 1 1289 1953)">Exporting</text>
  <text style="stroke:none;fill:black;font-family:sans-serif;font-size:13;" transform="matrix(1 0 0 1 1289 1971)">Symbols should be outlined when exporting to ensure the</text>
  <text style="stroke:none;fill:black;font-family:sans-serif;font-size:13;" transform="matrix(1 0 0 1 1289 1989)">design is preserved when submitting to Xcode.</text>
  <text id="template-version" style="stroke:none;fill:black;font-family:sans-serif;font-size:13;text-anchor:end;" transform="matrix(1 0 0 1 3036 1933)">Template v.4.0</text>
  <text style="stroke:none;fill:black;font-family:sans-serif;font-size:13;text-anchor:end;" transform="matrix(1 0 0 1 3036 1951)">Requires Xcode 14 or greater</text>
  <text id="descriptive-name" style="stroke:none;fill:black;font-family:sans-serif;font-size:13;text-anchor:end;" transform="matrix(1 0 0 1 3036 1969)">Generated from discord.fill</text>
  <text style="stroke:none;fill:black;font-family:sans-serif;font-size:13;text-anchor:end;" transform="matrix(1 0 0 1 3036 1987)">Typeset at 100 points</text>
  <text style="stroke:none;fill:black;font-family:sans-serif;font-size:13;" transform="matrix(1 0 0 1 263 726)">Small</text>
  <text style="stroke:none;fill:black;font-family:sans-serif;font-size:13;" transform="matrix(1 0 0 1 263 1156)">Medium</text>
  <text style="stroke:none;fill:black;font-family:sans-serif;font-size:13;" transform="matrix(1 0 0 1 263 1586)">Large</text>
 </g>
 <g id="Guides">
  <g id="H-reference" style="fill:#27AAE1;stroke:none;" transform="matrix(1 0 0 1 339 696)">
   <path d="M0.993654 0L3.63775 0L29.3281-67.1323L30.0303-67.1323L30.0303-70.459L28.1226-70.459ZM11.6885-24.4799L46.9815-24.4799L46.2315-26.7285L12.4385-26.7285ZM55.1196 0L57.7637 0L30.6382-70.459L29.4326-70.459L29.4326-67.1323Z"/>
  </g>
  <line id="Baseline-S" style="fill:none;stroke:#27AAE1;opacity:1;stroke-width:0.5;" x1="263" x2="3036" y1="696" y2="696"/>
  <line id="Capline-S" style="fill:none;stroke:#27AAE1;opacity:1;stroke-width:0.5;" x1="263" x2="3036" y1="625.541" y2="625.541"/>
  <g id="H-reference" style="fill:#27AAE1;stroke:none;" transform="matrix(1 0 0 1 339 1126)">
   <path d="M0.993654 0L3.63775 0L29.3281-67.1323L30.0303-67.1323L30.0303-70.459L28.1226-70.459ZM11.6885-24.4799L46.9815-24.4799L46.2315-26.7285L12.4385-26.7285ZM55.1196 0L57.7637 0L30.6382-70.459L29.4326-70.459L29.4326-67.1323Z"/>
  </g>
  <line id="Baseline-M" style="fill:none;stroke:#27AAE1;opacity:1;stroke-width:0.5;" x1="263" x2="3036" y1="1126" y2="1126"/>
  <line id="Capline-M" style="fill:none;stroke:#27AAE1;opacity:1;stroke-width:0.5;" x1="263" x2="3036" y1="1055.54" y2="1055.54"/>
  <g id="H-reference" style="fill:#27AAE1;stroke:none;" transform="matrix(1 0 0 1 339 1556)">
   <path d="M0.993654 0L3.63775 0L29.3281-67.1323L30.0303-67.1323L30.0303-70.459L28.1226-70.459ZM11.6885-24.4799L46.9815-24.4799L46.2315-26.7285L12.4385-26.7285ZM55.1196 0L57.7637 0L30.6382-70.459L29.4326-70.459L29.4326-67.1323Z"/>
  </g>
  <line id="Baseline-L" style="fill:none;stroke:#27AAE1;opacity:1;stroke-width:0.5;" x1="263" x2="3036" y1="1556" y2="1556"/>
  <line id="Capline-L" style="fill:none;stroke:#27AAE1;opacity:1;stroke-width:0.5;" x1="263" x2="3036" y1="1485.54" y2="1485.54"/>
  <line id="left-margin-Regular-M" style="fill:none;stroke:#00AEEF;stroke-width:0.5;opacity:1.0;" x1="1379.84" x2="1379.84" y1="1030.79" y2="1150.12"/>
  <line id="right-margin-Regular-M" style="fill:none;stroke:#00AEEF;stroke-width:0.5;opacity:1.0;" x1="1519.85" x2="1519.85" y1="1030.79" y2="1150.12"/>
 </g>
 <g id="Symbols">
  <g id="Black-L" transform="matrix(1 0 0 1 2845.39 1556)">
   <path class="monochrome-0 multicolor-0:custom hierarchical-0:secondary SFSymbolsPreview5865F2" d="M140.071-81.17C130.151-85.7341 119.677-88.9721 108.919-90.8011C107.447-88.1566 106.115-85.4357 104.928-82.6499C93.4688-84.3851 81.8151-84.3851 70.3555-82.6499C69.1685-85.4354 67.8365-88.1563 66.3649-90.8011C55.5998-88.9566 45.1195-85.711 35.1887-81.1462C15.4735-51.8352 10.129-23.2523 12.8012 4.92482L12.8012 4.92482C24.347 13.4968 37.2699 20.016 51.0084 24.1989C54.1019 20.018 56.8392 15.5826 59.1914 10.9398C54.7238 9.26306 50.4118 7.1944 46.3052 4.75774C47.386 3.97007 48.443 3.15853 49.4644 2.37086C73.6571 13.8034 101.662 13.8034 125.855 2.37086C126.888 3.2182 127.945 4.02974 129.014 4.75774C124.9 7.19835 120.58 9.27097 116.104 10.9517C118.454 15.5924 121.191 20.0241 124.287 24.1989C138.038 20.0327 150.97 13.5167 162.518 4.93676L162.518 4.93676C165.654-27.7397 157.162-56.06 140.071-81.17Z"/>
   <path class="monochrome-1 multicolor-1:tintColor hierarchical-1:primary SFSymbolsPreviewFFFFFF" d="M62.5763-12.4039C55.1296-12.4039 48.9775-19.1946 48.9775-27.5487C48.9775-35.9028 54.9158-42.7532 62.5525-42.7532C70.1892-42.7532 76.2938-35.9028 76.1631-27.5487C76.0325-19.1946 70.1654-12.4039 62.5763-12.4039ZM112.743-12.4039C105.285-12.4039 99.1563-19.1946 99.1563-27.5487C99.1563-35.9028 105.095-42.7532 112.743-42.7532C120.392-42.7532 126.449-35.9028 126.318-27.5487C126.188-19.1946 120.332-12.4039 112.743-12.4039Z"/>
  </g>
  <g id="Heavy-L" transform="matrix(1 0 0 1 2549.18 1556)">
   <path class="monochrome-0 multicolor-0:custom hierarchical-0:secondary SFSymbolsPreview5865F2" d="M139.224-81.3471C129.369-85.8715 118.965-89.0813 108.278-90.8944C106.816-88.2729 105.493-85.5757 104.314-82.8141C92.9303-84.5342 81.3538-84.5342 69.9701-82.8141C68.7909-85.5754 67.4677-88.2726 66.0059-90.8944C55.3121-89.066 44.9013-85.8486 35.0362-81.3234C15.4515-52.2674 10.1424-23.933 12.797 3.99912L12.797 3.99912C24.2663 12.4966 37.1036 18.959 50.7511 23.1056C53.8241 18.9611 56.5434 14.5642 58.8799 9.96176C54.4419 8.29963 50.1585 6.24896 46.0791 3.8335C47.1527 3.05267 48.2028 2.24819 49.2174 1.46737C73.2498 12.8005 101.07 12.8005 125.102 1.46737C126.129 2.30734 127.179 3.11183 128.24 3.8335C124.153 6.25288 119.862 8.30748 115.416 9.97359C117.75 14.5739 120.469 18.9671 123.545 23.1056C137.204 18.9757 150.051 12.5163 161.522 4.01095L161.522 4.01095C164.637-28.3813 156.202-56.4554 139.224-81.3471Z"/>
   <path class="monochrome-1 multicolor-1:tintColor hierarchical-1:primary SFSymbolsPreviewFFFFFF" d="M62.2424-13.179C54.845-13.179 48.7337-19.9106 48.7337-28.192C48.7337-36.4735 54.6327-43.2643 62.2188-43.2643C69.8049-43.2643 75.8691-36.4735 75.7393-28.192C75.6095-19.9106 69.7813-13.179 62.2424-13.179ZM112.077-13.179C104.668-13.179 98.5802-19.9106 98.5802-28.192C98.5802-36.4735 104.479-43.2643 112.077-43.2643C119.675-43.2643 125.692-36.4735 125.562-28.192C125.432-19.9106 119.616-13.179 112.077-13.179Z"/>
  </g>
  <g id="Bold-L" transform="matrix(1 0 0 1 2252.97 1556)">
   <path class="monochrome-0 multicolor-0:custom hierarchical-0:secondary SFSymbolsPreview5865F2" d="M138.377-81.5229C128.588-86.0077 118.253-89.1893 107.637-90.9865C106.185-88.388 104.87-85.7144 103.7-82.9771C92.3918-84.6821 80.8925-84.6821 69.5847-82.9771C68.4134-85.7141 67.099-88.3877 65.647-90.9865C55.0244-89.1741 44.683-85.9849 34.8837-81.4995C15.4296-52.6983 10.1559-24.6125 12.7927 3.07462L12.7927 3.07462C24.1855 11.4975 36.9374 17.9033 50.4939 22.0135C53.5464 17.9053 56.2475 13.5471 58.5685 8.98496C54.1601 7.33741 49.9051 5.30473 45.853 2.91045C46.9195 2.13648 47.9625 1.33905 48.9703 0.565077C72.8426 11.7988 100.477 11.7988 124.349 0.565077C125.369 1.39768 126.412 2.19511 127.466 2.91045C123.407 5.30861 119.144 7.34518 114.728 8.99669C117.046 13.5567 119.747 17.9113 122.802 22.0135C136.37 17.9198 149.132 11.5171 160.527 3.08635L160.527 3.08635C163.621-29.0218 155.241-56.8496 138.377-81.5229Z"/>
   <path class="monochrome-1 multicolor-1:tintColor hierarchical-1:primary SFSymbolsPreviewFFFFFF" d="M61.9085-13.9528C54.5605-13.9528 48.4898-20.6254 48.4898-28.8342C48.4898-37.043 54.3495-43.7742 61.8851-43.7742C69.4206-43.7742 75.4443-37.043 75.3154-28.8342C75.1865-20.6254 69.3971-13.9528 61.9085-13.9528ZM111.411-13.9528C104.051-13.9528 98.0041-20.6254 98.0041-28.8342C98.0041-37.043 103.864-43.7742 111.411-43.7742C118.958-43.7742 124.935-37.043 124.806-28.8342C124.677-20.6254 118.9-13.9528 111.411-13.9528Z"/>
  </g>
  <g id="Semibold-L" transform="matrix(1 0 0 1 1956.26 1556)">
   <path class="monochrome-0 multicolor-0:custom hierarchical-0:secondary SFSymbolsPreview5865F2" d="M138.377-81.5229C128.588-86.0077 118.253-89.1893 107.637-90.9865C106.185-88.388 104.87-85.7144 103.7-82.9771C92.3918-84.6821 80.8925-84.6821 69.5847-82.9771C68.4134-85.7141 67.099-88.3877 65.647-90.9865C55.0244-89.1741 44.683-85.9849 34.8837-81.4995C15.4296-52.6983 10.1559-24.6125 12.7927 3.07462L12.7927 3.07462C24.1855 11.4975 36.9374 17.9033 50.4939 22.0135C53.5464 17.9053 56.2475 13.5471 58.5685 8.98496C54.1601 7.33741 49.9051 5.30473 45.853 2.91045C46.9195 2.13648 47.9625 1.33905 48.9703 0.565077C72.8426 11.7988 100.477 11.7988 124.349 0.565077C125.369 1.39768 126.412 2.19511 127.466 2.91045C123.407 5.30861 119.144 7.34519 114.728 8.99669C117.046 13.5567 119.747 17.9113 122.802 22.0135C136.37 17.9198 149.132 11.5171 160.527 3.08635L160.527 3.08635C163.621-29.0218 155.241-56.8496 138.377-81.5229Z"/>
   <path class="monochrome-1 multicolor-1:tintColor hierarchical-1:primary SFSymbolsPreviewFFFFFF" d="M61.9085-13.9528C54.5605-13.9528 48.4898-20.6254 48.4898-28.8342C48.4898-37.043 54.3495-43.7742 61.8851-43.7742C69.4206-43.7742 75.4443-37.043 75.3154-28.8342C75.1865-20.6254 69.3971-13.9528 61.9085-13.9528ZM111.411-13.9528C104.051-13.9528 98.0041-20.6254 98.0041-28.8342C98.0041-37.043 103.864-43.7742 111.411-43.7742C118.958-43.7742 124.935-37.043 124.806-28.8342C124.677-20.6254 118.9-13.9528 111.411-13.9528Z"/>
  </g>
  <g id="Medium-L" transform="matrix(1 0 0 1 1660.05 1556)">
   <path class="monochrome-0 multicolor-0:custom hierarchical-0:secondary SFSymbolsPreview5865F2" d="M137.53-81.2464C127.806-85.6914 117.541-88.8449 106.997-90.6262C105.554-88.0507 104.248-85.4008 103.085-82.6876C91.8534-84.3776 80.4312-84.3776 69.1993-82.6876C68.0359-85.4005 66.7303-88.0504 65.288-90.6262C54.7367-88.8298 44.4647-85.6689 34.7312-81.2231C15.4076-52.6768 10.1693-24.8396 12.7885 2.60253L12.7885 2.60253C24.1048 10.9509 36.7711 17.3 50.2366 21.3738C53.2686 17.302 55.9516 12.9823 58.257 8.46056C53.8782 6.82759 49.6518 4.81289 45.6269 2.4398C46.6862 1.67268 47.7222 0.88231 48.7233 0.115186C72.4353 11.2495 99.8842 11.2495 123.596 0.115186C124.609 0.940425 125.645 1.73079 126.693 2.4398C122.66 4.81674 118.426 6.83529 114.039 8.47218C116.342 12.9918 119.025 17.3079 122.06 21.3738C135.537 17.3163 148.213 10.9703 159.531 2.61415L159.531 2.61415C162.604-29.2098 154.281-56.7914 137.53-81.2464Z"/>
   <path class="monochrome-1 multicolor-1:tintColor hierarchical-1:primary SFSymbolsPreviewFFFFFF" d="M61.5746-14.2742C54.2759-14.2742 48.246-20.8877 48.246-29.0239C48.246-37.16 54.0664-43.8317 61.5513-43.8317C69.0363-43.8317 75.0196-37.16 74.8916-29.0239C74.7635-20.8877 69.013-14.2742 61.5746-14.2742ZM110.745-14.2742C103.435-14.2742 97.4279-20.8877 97.4279-29.0239C97.4279-37.16 103.248-43.8317 110.745-43.8317C118.241-43.8317 124.178-37.16 124.05-29.0239C123.922-20.8877 118.183-14.2742 110.745-14.2742Z"/>
  </g>
  <g id="Regular-L" transform="matrix(1 0 0 1 1363.34 1556)">
   <path class="monochrome-0 multicolor-0:custom hierarchical-0:secondary SFSymbolsPreview5865F2" d="M137.53-81.2464C127.806-85.6914 117.541-88.8449 106.997-90.6262C105.554-88.0507 104.248-85.4008 103.085-82.6876C91.8534-84.3776 80.4312-84.3776 69.1993-82.6876C68.0359-85.4005 66.7303-88.0504 65.288-90.6262C54.7367-88.8298 44.4647-85.6689 34.7312-81.2231C15.4076-52.6768 10.1693-24.8396 12.7885 2.60253L12.7885 2.60253C24.1048 10.9509 36.7711 17.3 50.2366 21.3738C53.2686 17.302 55.9516 12.9823 58.257 8.46056C53.8782 6.82759 49.6518 4.81289 45.6269 2.4398C46.6862 1.67268 47.7222 0.88231 48.7233 0.115187C72.4353 11.2495 99.8842 11.2495 123.596 0.115187C124.609 0.940425 125.645 1.73079 126.693 2.4398C122.66 4.81674 118.426 6.83529 114.039 8.47218C116.342 12.9918 119.025 17.3079 122.06 21.3738C135.537 17.3163 148.213 10.9703 159.531 2.61415L159.531 2.61415C162.604-29.2098 154.281-56.7914 137.53-81.2464Z"/>
   <path class="monochrome-1 multicolor-1:tintColor hierarchical-1:primary SFSymbolsPreviewFFFFFF" d="M61.5746-14.2742C54.2759-14.2742 48.246-20.8877 48.246-29.0239C48.246-37.16 54.0664-43.8317 61.5513-43.8317C69.0363-43.8317 75.0196-37.16 74.8916-29.0239C74.7635-20.8877 69.013-14.2742 61.5746-14.2742ZM110.745-14.2742C103.435-14.2742 97.4279-20.8877 97.4279-29.0239C97.4279-37.16 103.248-43.8317 110.745-43.8317C118.241-43.8317 124.178-37.16 124.05-29.0239C123.922-20.8877 118.183-14.2742 110.745-14.2742Z"/>
  </g>
  <g id="Light-L" transform="matrix(1 0 0 1 1067.13 1556)">
   <path class="monochrome-0 multicolor-0:custom hierarchical-0:secondary SFSymbolsPreview5865F2" d="M136.683-80.5094C127.025-84.9148 116.829-88.0401 106.356-89.8055C104.923-87.253 103.626-84.6267 102.471-81.9378C91.3149-83.6127 79.9699-83.6127 68.8139-81.9378C67.6583-84.6265 66.3616-87.2526 64.929-89.8055C54.449-88.0252 44.2464-84.8924 34.5787-80.4864C15.3857-52.195 10.1828-24.6062 12.7842 2.59083L12.7842 2.59083C24.0241 10.8647 36.6048 17.1571 49.9793 21.1945C52.9908 17.159 55.6557 12.8779 57.9455 8.39656C53.5963 6.77817 49.3985 4.78146 45.4007 2.42956C46.4529 1.66928 47.4819 0.88597 48.4762 0.125696C72.0281 11.1606 99.2914 11.1606 122.843 0.125696C123.849 0.943566 124.878 1.72688 125.919 2.42956C121.913 4.78527 117.708 6.7858 113.351 8.40807C115.638 12.8874 118.303 17.1649 121.317 21.1945C134.703 17.1733 147.293 10.8838 158.535 2.60235L158.535 2.60235C161.588-28.9375 153.321-56.2728 136.683-80.5094Z"/>
   <path class="monochrome-1 multicolor-1:tintColor hierarchical-1:primary SFSymbolsPreviewFFFFFF" d="M61.2407-14.1352C53.9913-14.1352 48.0022-20.6897 48.0022-28.7532C48.0022-36.8167 53.7832-43.4288 61.2176-43.4288C68.652-43.4288 74.5949-36.8167 74.4677-28.7532C74.3405-20.6897 68.6289-14.1352 61.2407-14.1352ZM110.079-14.1352C102.818-14.1352 96.8518-20.6897 96.8518-28.7532C96.8518-36.8167 102.633-43.4288 110.079-43.4288C117.525-43.4288 123.421-36.8167 123.294-28.7532C123.167-20.6897 117.467-14.1352 110.079-14.1352Z"/>
  </g>
  <g id="Thin-L" transform="matrix(1 0 0 1 771.417 1556)">
   <path class="monochrome-0 multicolor-0:custom hierarchical-0:secondary SFSymbolsPreview5865F2" d="M134.989-80.0356C125.462-84.3616 115.405-87.4306 105.074-89.1642C103.661-86.6576 102.381-84.0787 101.242-81.4383C90.2379-83.083 79.0473-83.083 68.0431-81.4383C66.9033-84.0785 65.6242-86.6573 64.2111-89.1642C53.8737-87.4159 43.8099-84.3397 34.2737-80.013C15.3418-52.2313 10.2097-25.1397 12.7757 1.56733L12.7757 1.56733C23.8627 9.69208 36.2722 15.8711 49.4648 19.8358C52.4353 15.8731 55.0639 11.6691 57.3226 7.26845C53.0325 5.67922 48.8918 3.71849 44.9485 1.40896C45.9863 0.662388 47.0013-0.106811 47.9821-0.853386C71.2135 9.9827 98.106 9.9827 121.337-0.853386C122.33-0.0502523 123.345 0.718946 124.371 1.40896C120.42 3.72223 116.272 5.68672 111.974 7.27976C114.23 11.6783 116.859 15.8788 119.832 19.8358C133.036 15.887 145.455 9.71092 156.544 1.57864L156.544 1.57864C159.555-29.3929 151.4-56.2357 134.989-80.0356Z"/>
   <path class="monochrome-1 multicolor-1:tintColor hierarchical-1:primary SFSymbolsPreviewFFFFFF" d="M60.573-14.8573C53.4222-14.8573 47.5145-21.2937 47.5145-29.2119C47.5145-37.1302 53.2169-43.6231 60.5501-43.6231C67.8834-43.6231 73.7454-37.1302 73.62-29.2119C73.4945-21.2937 67.8606-14.8573 60.573-14.8573ZM108.747-14.8573C101.584-14.8573 95.6995-21.2937 95.6995-29.2119C95.6995-37.1302 101.402-43.6231 108.747-43.6231C116.091-43.6231 121.908-37.1302 121.782-29.2119C121.657-21.2937 116.034-14.8573 108.747-14.8573Z"/>
  </g>
  <g id="Ultralight-L" transform="matrix(1 0 0 1 474.706 1556)">
   <path class="monochrome-0 multicolor-0:custom hierarchical-0:secondary SFSymbolsPreview5865F2" d="M134.989-80.0356C125.462-84.3616 115.405-87.4306 105.074-89.1642C103.661-86.6576 102.381-84.0787 101.242-81.4383C90.2379-83.083 79.0473-83.083 68.0431-81.4383C66.9033-84.0785 65.6242-86.6573 64.2111-89.1642C53.8737-87.4159 43.8099-84.3397 34.2737-80.013C15.3418-52.2313 10.2097-25.1397 12.7757 1.56733L12.7757 1.56733C23.8627 9.69208 36.2722 15.8711 49.4648 19.8358C52.4353 15.8731 55.0639 11.6691 57.3226 7.26845C53.0325 5.67922 48.8918 3.71849 44.9485 1.40896C45.9863 0.662388 47.0013-0.106811 47.9821-0.853386C71.2135 9.98271 98.106 9.98271 121.337-0.853386C122.33-0.0502523 123.345 0.718947 124.371 1.40896C120.42 3.72223 116.272 5.68672 111.974 7.27976C114.23 11.6783 116.859 15.8788 119.832 19.8358C133.036 15.887 145.455 9.71092 156.544 1.57864L156.544 1.57864C159.555-29.3929 151.4-56.2357 134.989-80.0356Z"/>
   <path class="monochrome-1 multicolor-1:tintColor hierarchical-1:primary SFSymbolsPreviewFFFFFF" d="M60.573-14.8573C53.4222-14.8573 47.5145-21.2937 47.5145-29.2119C47.5145-37.1302 53.2169-43.6231 60.5501-43.6231C67.8834-43.6231 73.7454-37.1302 73.62-29.2119C73.4945-21.2937 67.8606-14.8573 60.573-14.8573ZM108.747-14.8573C101.584-14.8573 95.6995-21.2937 95.6995-29.2119C95.6995-37.1302 101.402-43.6231 108.747-43.6231C116.091-43.6231 121.908-37.1302 121.782-29.2119C121.657-21.2937 116.034-14.8573 108.747-14.8573Z"/>
  </g>
  <g id="Black-M" transform="matrix(1 0 0 1 2861.89 1126)">
   <path class="monochrome-0 multicolor-0:custom hierarchical-0:secondary SFSymbolsPreview5865F2" d="M112.117-72.0622C104.365-75.6341 96.1801-78.1682 87.7729-79.5996C86.6225-77.53 85.5816-75.4006 84.6545-73.2204C75.6993-74.5784 66.5924-74.5784 57.6372-73.2204C56.7097-75.4004 55.6688-77.5297 54.5188-79.5996C46.1063-78.1561 37.9165-75.616 30.1559-72.0436C14.7493-49.1046 10.5728-26.7353 12.6611-4.68366L12.6611-4.68366C21.6836 2.02485 31.7823 7.1268 42.5184 10.4004C44.9358 7.12841 47.0749 3.65723 48.913 0.0236877C45.4218-1.28852 42.0521-2.90747 38.843-4.81442C39.6876-5.43086 40.5136-6.06598 41.3118-6.68241C60.2173 2.26482 82.1022 2.26482 101.008-6.68241C101.815-6.01928 102.641-5.38416 103.477-4.81442C100.261-2.90438 96.8854-1.28233 93.388 0.0330276C95.2239 3.66488 97.3631 7.13316 99.7827 10.4004C110.528 7.13993 120.634 2.04041 129.658-4.67432L129.658-4.67432C132.109-30.2472 125.473-52.4109 112.117-72.0622Z"/>
   <path class="monochrome-1 multicolor-1:tintColor hierarchical-1:primary SFSymbolsPreviewFFFFFF" d="M51.5581-18.2453C45.7389-18.2453 40.9313-23.5597 40.9313-30.0977C40.9313-36.6357 45.5718-41.9969 51.5396-41.9969C57.5073-41.9969 62.2778-36.6357 62.1757-30.0977C62.0736-23.5597 57.4887-18.2453 51.5581-18.2453ZM90.7615-18.2453C84.9329-18.2453 80.1439-23.5597 80.1439-30.0977C80.1439-36.6357 84.7844-41.9969 90.7615-41.9969C96.7385-41.9969 101.472-36.6357 101.37-30.0977C101.268-23.5597 96.6921-18.2453 90.7615-18.2453Z"/>
  </g>
  <g id="Heavy-M" transform="matrix(1 0 0 1 2565.68 1126)">
   <path class="monochrome-0 multicolor-0:custom hierarchical-0:secondary SFSymbolsPreview5865F2" d="M111.27-71.3354C103.583-74.8676 95.468-77.3735 87.1322-78.789C85.9915-76.7424 84.9594-74.6367 84.0401-72.4807C75.1608-73.8236 66.1312-73.8236 57.2518-72.4807C56.3321-74.6364 55.3-76.7421 54.1598-78.789C45.8186-77.3615 37.6982-74.8497 30.0034-71.3169C14.7274-48.6328 10.5863-26.5121 12.6568-4.70546L12.6568-4.70546C21.6029 1.92852 31.616 6.97377 42.2611 10.211C44.658 6.97537 46.779 3.54275 48.6016-0.0504155C45.1399-1.34804 41.7988-2.94901 38.6169-4.83477C39.4543-5.44435 40.2734-6.07242 41.0648-6.68201C59.8101 2.16581 81.5095 2.16581 100.255-6.68201C101.055-6.02624 101.874-5.39817 102.703-4.83477C99.5146-2.94595 96.1674-1.34192 92.6996-0.0411793C94.5199 3.55032 96.6411 6.98006 99.0401 10.211C109.694 6.98676 119.715 1.9439 128.663-4.69622L128.663-4.69622C131.092-29.9849 124.512-51.9024 111.27-71.3354Z"/>
   <path class="monochrome-1 multicolor-1:tintColor hierarchical-1:primary SFSymbolsPreviewFFFFFF" d="M51.2242-18.1164C45.4543-18.1164 40.6875-23.3718 40.6875-29.8372C40.6875-36.3025 45.2887-41.6041 51.2058-41.6041C57.123-41.6041 61.8531-36.3025 61.7518-29.8372C61.6506-23.3718 57.1046-18.1164 51.2242-18.1164ZM90.0953-18.1164C84.3162-18.1164 79.5678-23.3718 79.5678-29.8372C79.5678-36.3025 84.169-41.6041 90.0953-41.6041C96.0217-41.6041 100.715-36.3025 100.614-29.8372C100.512-23.3718 95.9757-18.1164 90.0953-18.1164Z"/>
  </g>
  <g id="Bold-M" transform="matrix(1 0 0 1 2269.47 1126)">
   <path class="monochrome-0 multicolor-0:custom hierarchical-0:secondary SFSymbolsPreview5865F2" d="M110.423-70.8872C102.802-74.3798 94.756-76.8575 86.4914-78.2571C85.3604-76.2335 84.3371-74.1514 83.4258-72.0197C74.6224-73.3475 65.6699-73.3475 56.8664-72.0197C55.9546-74.1512 54.9313-76.2332 53.8009-78.2571C45.5309-76.8457 37.4799-74.3621 29.8509-70.869C14.7054-48.4397 10.5997-26.5676 12.6526-5.00596L12.6526-5.00596C21.5222 1.55348 31.4497 6.54205 42.0038 9.7429C44.3803 6.54362 46.4831 3.14957 48.2901-0.403219C44.858-1.68627 41.5455-3.26924 38.3908-5.13381C39.221-5.73655 40.0331-6.35756 40.8177-6.9603C59.4028 1.78811 80.9168 1.78811 99.5019-6.9603C100.296-6.31189 101.108-5.69089 101.929-5.13381C98.768-3.26622 95.4494-1.68021 92.0113-0.394086C93.816 3.15706 95.919 6.54826 98.2975 9.7429C108.861 6.55489 118.796 1.56868 127.667-4.99683L127.667-4.99683C130.076-30.0014 123.552-51.6726 110.423-70.8872Z"/>
   <path class="monochrome-1 multicolor-1:tintColor hierarchical-1:primary SFSymbolsPreviewFFFFFF" d="M50.8904-18.2662C45.1698-18.2662 40.4436-23.4626 40.4436-29.8553C40.4436-36.248 45.0055-41.49 50.8721-41.49C56.7387-41.49 61.4283-36.248 61.328-29.8553C61.2276-23.4626 56.7205-18.2662 50.8904-18.2662ZM89.4292-18.2662C83.6995-18.2662 78.9916-23.4626 78.9916-29.8553C78.9916-36.248 83.5535-41.49 89.4292-41.49C95.3049-41.49 99.9581-36.248 99.8577-29.8553C99.7573-23.4626 95.2593-18.2662 89.4292-18.2662Z"/>
  </g>
  <g id="Semibold-M" transform="matrix(1 0 0 1 1972.76 1126)">
   <path class="monochrome-0 multicolor-0:custom hierarchical-0:secondary SFSymbolsPreview5865F2" d="M110.423-70.8872C102.802-74.3798 94.756-76.8575 86.4914-78.2571C85.3604-76.2335 84.3371-74.1514 83.4258-72.0197C74.6224-73.3475 65.6699-73.3475 56.8664-72.0197C55.9546-74.1512 54.9313-76.2332 53.8009-78.2571C45.5309-76.8457 37.4799-74.3621 29.8509-70.869C14.7054-48.4397 10.5997-26.5676 12.6526-5.00596L12.6526-5.00596C21.5222 1.55348 31.4497 6.54205 42.0038 9.7429C44.3803 6.54362 46.4831 3.14957 48.2901-0.403219C44.858-1.68627 41.5455-3.26924 38.3908-5.13381C39.221-5.73655 40.0331-6.35756 40.8177-6.9603C59.4028 1.78811 80.9168 1.78811 99.5019-6.9603C100.296-6.31189 101.108-5.69089 101.929-5.13381C98.768-3.26622 95.4494-1.68021 92.0113-0.394086C93.816 3.15706 95.919 6.54826 98.2975 9.7429C108.861 6.55489 118.796 1.56868 127.667-4.99683L127.667-4.99683C130.076-30.0014 123.552-51.6726 110.423-70.8872Z"/>
   <path class="monochrome-1 multicolor-1:tintColor hierarchical-1:primary SFSymbolsPreviewFFFFFF" d="M50.8904-18.2662C45.1698-18.2662 40.4436-23.4626 40.4436-29.8553C40.4436-36.248 45.0055-41.49 50.8721-41.49C56.7387-41.49 61.4283-36.248 61.328-29.8553C61.2276-23.4626 56.7205-18.2662 50.8904-18.2662ZM89.4292-18.2662C83.6995-18.2662 78.9916-23.4626 78.9916-29.8553C78.9916-36.248 83.5535-41.49 89.4292-41.49C95.3049-41.49 99.9581-36.248 99.8577-29.8553C99.7573-23.4626 95.2593-18.2662 89.4292-18.2662Z"/>
  </g>
  <g id="Medium-M" transform="matrix(1 0 0 1 1676.55 1126)">
   <path class="monochrome-0 multicolor-0:custom hierarchical-0:secondary SFSymbolsPreview5865F2" d="M109.576-70.7139C102.02-74.1667 94.044-76.6163 85.8506-78C84.7294-75.9994 83.7149-73.941 82.8114-71.8334C74.0839-73.1462 65.2086-73.1462 56.481-71.8334C55.5771-73.9408 54.5626-75.9991 53.4419-78C45.2433-76.6046 37.2616-74.1492 29.6984-70.6958C14.6835-48.5215 10.6132-26.8979 12.6484-5.58126L12.6484-5.58126C21.4415 0.903639 31.2835 5.83552 41.7465 9C44.1025 5.83708 46.1872 2.4816 47.9786-1.03082C44.5762-2.29929 41.2922-3.86428 38.1647-5.70766C38.9878-6.30355 39.7928-6.9175 40.5707-7.51339C58.9956 1.1356 80.324 1.1356 98.7489-7.51339C99.5359-6.87235 100.341-6.25841 101.155-5.70766C98.0214-3.86129 94.7314-2.2933 91.3229-1.02179C93.1121 2.489 95.1969 5.84166 97.555 9C108.027 5.84822 117.877 0.918673 126.671-5.57223L126.671-5.57223C129.059-30.2927 122.592-51.7176 109.576-70.7139Z"/>
   <path class="monochrome-1 multicolor-1:tintColor hierarchical-1:primary SFSymbolsPreviewFFFFFF" d="M50.5565-18.6908C44.8852-18.6908 40.1998-23.8281 40.1998-30.1482C40.1998-36.4682 44.7224-41.6507 50.5384-41.6507C56.3544-41.6507 61.0036-36.4682 60.9041-30.1482C60.8046-23.8281 56.3363-18.6908 50.5565-18.6908ZM88.7631-18.6908C83.0828-18.6908 78.4155-23.8281 78.4155-30.1482C78.4155-36.4682 82.938-41.6507 88.7631-41.6507C94.5882-41.6507 99.2012-36.4682 99.1017-30.1482C99.0022-23.8281 94.5429-18.6908 88.7631-18.6908Z"/>
  </g>
  <g id="Regular-M" transform="matrix(1 0 0 1 1379.84 1126)">
   <path class="monochrome-0 multicolor-0:custom hierarchical-0:secondary SFSymbolsPreview5865F2" d="M109.576-70.7139C102.02-74.1667 94.044-76.6163 85.8506-78C84.7294-75.9994 83.7149-73.941 82.8114-71.8334C74.0839-73.1462 65.2086-73.1462 56.481-71.8334C55.5771-73.9408 54.5626-75.9991 53.4419-78C45.2433-76.6046 37.2616-74.1492 29.6984-70.6958C14.6835-48.5215 10.6132-26.8979 12.6484-5.58126L12.6484-5.58126C21.4415 0.903639 31.2835 5.83552 41.7465 9C44.1025 5.83708 46.1872 2.4816 47.9786-1.03082C44.5762-2.29929 41.2922-3.86428 38.1647-5.70766C38.9878-6.30355 39.7928-6.9175 40.5707-7.51339C58.9956 1.1356 80.324 1.1356 98.7489-7.51339C99.5359-6.87235 100.341-6.25841 101.155-5.70766C98.0214-3.86129 94.7314-2.2933 91.3229-1.02179C93.1121 2.489 95.1969 5.84166 97.555 9C108.027 5.84822 117.877 0.918673 126.671-5.57223L126.671-5.57223C129.059-30.2927 122.592-51.7176 109.576-70.7139Z"/>
   <path class="monochrome-1 multicolor-1:tintColor hierarchical-1:primary SFSymbolsPreviewFFFFFF" d="M50.5565-18.6908C44.8852-18.6908 40.1998-23.8281 40.1998-30.1482C40.1998-36.4682 44.7224-41.6507 50.5384-41.6507C56.3544-41.6507 61.0036-36.4682 60.9041-30.1482C60.8046-23.8281 56.3363-18.6908 50.5565-18.6908ZM88.7631-18.6908C83.0828-18.6908 78.4155-23.8281 78.4155-30.1482C78.4155-36.4682 82.938-41.6507 88.7631-41.6507C94.5882-41.6507 99.2012-36.4682 99.1017-30.1482C99.0022-23.8281 94.5429-18.6908 88.7631-18.6908Z"/>
  </g>
  <g id="Light-M" transform="matrix(1 0 0 1 1083.63 1126)">
   <path class="monochrome-0 multicolor-0:custom hierarchical-0:secondary SFSymbolsPreview5865F2" d="M108.729-70.2266C101.239-73.6398 93.3319-76.0612 85.2098-77.429C84.0984-75.4514 83.0927-73.4166 82.1971-71.3333C73.5454-72.631 64.7473-72.631 56.0956-71.3333C55.1995-73.4164 54.1939-75.4511 53.0829-77.429C44.9556-76.0496 37.0434-73.6225 29.5459-70.2088C14.6616-48.2893 10.6266-26.9143 12.6441-5.84266L12.6441-5.84266C21.3608 0.567701 31.1172 5.44289 41.4893 8.571C43.8247 5.44443 45.8914 2.12752 47.6672-1.34453C44.2943-2.59841 41.0388-4.14541 37.9385-5.96761C38.7545-6.55665 39.5525-7.16354 40.3236-7.75258C58.5883 0.796998 79.7313 0.796998 97.996-7.75258C98.7761-7.11891 99.5741-6.51202 100.381-5.96761C97.2748-4.14246 94.0134-2.5925 90.6345-1.3356C92.4081 2.13484 94.4749 5.44897 96.8124 8.571C107.193 5.45544 116.957 0.582562 125.675-5.83373L125.675-5.83373C128.043-30.27 121.632-51.4487 108.729-70.2266Z"/>
   <path class="monochrome-1 multicolor-1:tintColor hierarchical-1:primary SFSymbolsPreviewFFFFFF" d="M50.2226-18.8016C44.6006-18.8016 39.956-23.8798 39.956-30.1272C39.956-36.3746 44.4392-41.4975 50.2047-41.4975C55.9701-41.4975 60.5789-36.3746 60.4803-30.1272C60.3816-23.8798 55.9522-18.8016 50.2226-18.8016ZM88.097-18.8016C82.466-18.8016 77.8393-23.8798 77.8393-30.1272C77.8393-36.3746 82.3226-41.4975 88.097-41.4975C93.8714-41.4975 98.4443-36.3746 98.3457-30.1272C98.247-23.8798 93.8266-18.8016 88.097-18.8016Z"/>
  </g>
  <g id="Thin-M" transform="matrix(1 0 0 1 787.417 1126)">
   <path class="monochrome-0 multicolor-0:custom hierarchical-0:secondary SFSymbolsPreview5865F2" d="M107.882-70.3373C100.458-73.7107 92.6199-76.104 84.569-77.4559C83.4673-75.5013 82.4705-73.4902 81.5827-71.4311C73.007-72.7137 64.286-72.7137 55.7102-71.4311C54.822-73.49 53.8252-75.501 52.7239-77.4559C44.6679-76.0926 36.8251-73.6937 29.3934-70.3196C14.6396-48.655 10.6401-27.5285 12.6399-6.70196L12.6399-6.70196C21.28-0.366138 30.9509 4.45237 41.232 7.5441C43.547 4.45389 45.5955 1.17555 47.3557-2.25613C44.0124-3.49544 40.7855-5.02444 37.7124-6.82545C38.5212-7.40764 39.3122-8.00748 40.0766-8.58967C58.181-0.139506 79.1386-0.139506 97.243-8.58967C98.0163-7.96337 98.8073-7.36354 99.6072-6.82545C96.5282-5.02153 93.2954-3.48959 89.9461-2.24731C91.7042 1.18278 93.7528 4.45837 96.0698 7.5441C106.36 4.46477 116.038-0.351449 124.68-6.69314L124.68-6.69314C127.026-30.8453 120.671-51.7777 107.882-70.3373Z"/>
   <path class="monochrome-1 multicolor-1:tintColor hierarchical-1:primary SFSymbolsPreviewFFFFFF" d="M49.8887-19.5102C44.3161-19.5102 39.7122-24.5294 39.7122-30.7041C39.7122-36.8789 44.1561-41.9422 49.8709-41.9422C55.5858-41.9422 60.1542-36.8789 60.0564-30.7041C59.9586-24.5294 55.568-19.5102 49.8887-19.5102ZM87.4309-19.5102C81.8493-19.5102 77.2632-24.5294 77.2632-30.7041C77.2632-36.8789 81.7071-41.9422 87.4309-41.9422C93.1546-41.9422 97.6874-36.8789 97.5897-30.7041C97.4919-24.5294 93.1102-19.5102 87.4309-19.5102Z"/>
  </g>
  <g id="Ultralight-M" transform="matrix(1 0 0 1 491.206 1126)">
   <path class="monochrome-0 multicolor-0:custom hierarchical-0:secondary SFSymbolsPreview5865F2" d="M107.035-69.9226C99.6761-73.2564 91.9079-75.6215 83.9282-76.9575C82.8363-75.0258 81.8483-73.0384 80.9683-71.0036C72.4685-72.2711 63.8247-72.2711 55.3248-71.0036C54.4444-73.0382 53.4564-75.0256 52.365-76.9575C44.3802-75.6102 36.6068-73.2395 29.2409-69.9052C14.6177-48.4955 10.6535-27.6175 12.6356-7.03596L12.6356-7.03596C21.1993-0.774676 30.7846 3.98714 40.9747 7.0425C43.2692 3.98865 45.2996 0.748871 47.0442-2.64243C43.7305-3.86716 40.5322-5.37818 37.4863-7.158C38.2879-7.73334 39.0719-8.32612 39.8295-8.90146C57.7738-0.550711 78.5458-0.550711 96.4901-8.90146C97.2565-8.28253 98.0405-7.68975 98.8333-7.158C95.7815-5.3753 92.5774-3.86138 89.2578-2.63371C91.0003 0.756018 93.0308 3.99307 95.3273 7.0425C105.526 3.9994 115.119-0.76016 123.684-7.02724L123.684-7.02724C126.01-30.8952 119.711-51.5814 107.035-69.9226Z"/>
   <path class="monochrome-1 multicolor-1:tintColor hierarchical-1:primary SFSymbolsPreviewFFFFFF" d="M49.5548-19.6935C44.0315-19.6935 39.4683-24.6536 39.4683-30.7558C39.4683-36.8579 43.8729-41.8616 49.5372-41.8616C55.2015-41.8616 59.7294-36.8579 59.6325-30.7558C59.5356-24.6536 55.1839-19.6935 49.5548-19.6935ZM86.7648-19.6935C81.2326-19.6935 76.6871-24.6536 76.6871-30.7558C76.6871-36.8579 81.0917-41.8616 86.7648-41.8616C92.4379-41.8616 96.9305-36.8579 96.8336-30.7558C96.7367-24.6536 92.3938-19.6935 86.7648-19.6935Z"/>
  </g>
  <g id="Black-S" transform="matrix(1 0 0 1 2874.89 696)">
   <path class="monochrome-0 multicolor-0:custom hierarchical-0:secondary SFSymbolsPreview5865F2" d="M90.0928-64.8782C84.0483-67.6564 77.6672-69.6273 71.1125-70.7406C70.2155-69.1309 69.4039-67.4747 68.6811-65.779C61.6991-66.8352 54.5989-66.8352 47.6168-65.779C46.8936-67.4745 46.0821-69.1307 45.1855-70.7406C38.6266-69.6179 32.2413-67.6423 26.1907-64.8637C14.1788-47.0223 10.9226-29.624 12.5507-12.4726L12.5507-12.4726C19.5852-7.25491 27.4588-3.28673 35.8292-0.7406C37.714-3.28548 39.3818-5.98529 40.8149-8.81138C38.0929-9.83198 35.4657-11.0912 32.9637-12.5743C33.6222-13.0538 34.2662-13.5478 34.8885-14.0272C49.6284-7.06828 66.6912-7.06828 81.4311-14.0272C82.0607-13.5115 82.7047-13.0175 83.3559-12.5743C80.8491-11.0888 78.2171-9.82717 75.4903-8.80411C76.9217-5.97933 78.5895-3.28179 80.476-0.7406C88.8536-3.27652 96.7332-7.24282 103.769-12.4654L103.769-12.4654C105.679-32.3554 100.506-49.5939 90.0928-64.8782Z"/>
   <path class="monochrome-1 multicolor-1:tintColor hierarchical-1:primary SFSymbolsPreviewFFFFFF" d="M42.8772-23.0206C38.3402-23.0206 34.5918-27.154 34.5918-32.2391C34.5918-37.3242 38.2099-41.494 42.8627-41.494C47.5155-41.494 51.2349-37.3242 51.1553-32.2391C51.0757-27.154 47.5011-23.0206 42.8772-23.0206ZM73.4425-23.0206C68.8982-23.0206 65.1644-27.154 65.1644-32.2391C65.1644-37.3242 68.7824-41.494 73.4425-41.494C78.1025-41.494 81.7929-37.3242 81.7134-32.2391C81.6338-27.154 78.0664-23.0206 73.4425-23.0206Z"/>
  </g>
  <g id="Heavy-S" transform="matrix(1 0 0 1 2578.18 696)">
   <path class="monochrome-0 multicolor-0:custom hierarchical-0:secondary SFSymbolsPreview5865F2" d="M90.0928-64.8782C84.0483-67.6564 77.6672-69.6273 71.1125-70.7406C70.2155-69.1309 69.4039-67.4747 68.6811-65.779C61.6991-66.8352 54.5989-66.8352 47.6168-65.779C46.8936-67.4745 46.0821-69.1307 45.1855-70.7406C38.6266-69.6179 32.2413-67.6423 26.1907-64.8637C14.1788-47.0223 10.9226-29.624 12.5507-12.4726L12.5507-12.4726C19.5852-7.25491 27.4588-3.28673 35.8292-0.7406C37.714-3.28548 39.3818-5.98529 40.8149-8.81138C38.0929-9.83198 35.4657-11.0912 32.9637-12.5743C33.6222-13.0538 34.2662-13.5478 34.8885-14.0272C49.6284-7.06828 66.6912-7.06828 81.4311-14.0272C82.0607-13.5115 82.7047-13.0175 83.3559-12.5743C80.8491-11.0888 78.2171-9.82717 75.4903-8.80411C76.9217-5.97933 78.5895-3.28179 80.476-0.7406C88.8536-3.27652 96.7332-7.24282 103.769-12.4654L103.769-12.4654C105.679-32.3554 100.506-49.5939 90.0928-64.8782Z"/>
   <path class="monochrome-1 multicolor-1:tintColor hierarchical-1:primary SFSymbolsPreviewFFFFFF" d="M42.8772-23.0206C38.3402-23.0206 34.5918-27.154 34.5918-32.2391C34.5918-37.3242 38.2099-41.494 42.8627-41.494C47.5155-41.494 51.2349-37.3242 51.1553-32.2391C51.0757-27.154 47.5011-23.0206 42.8772-23.0206ZM73.4425-23.0206C68.8982-23.0206 65.1644-27.154 65.1644-32.2391C65.1644-37.3242 68.7824-41.494 73.4425-41.494C78.1025-41.494 81.7929-37.3242 81.7134-32.2391C81.6338-27.154 78.0664-23.0206 73.4425-23.0206Z"/>
  </g>
  <g id="Bold-S" transform="matrix(1 0 0 1 2281.97 696)">
   <path class="monochrome-0 multicolor-0:custom hierarchical-0:secondary SFSymbolsPreview5865F2" d="M89.2457-64.8296C83.2669-67.568 76.9551-69.5108 70.4717-70.6082C69.5845-69.0215 68.7817-67.389 68.0668-65.7175C61.1606-66.7586 54.1376-66.7586 47.2314-65.7175C46.5161-67.3888 45.7134-69.0213 44.8265-70.6082C38.3389-69.5015 32.023-67.5541 26.0382-64.8152C14.1569-47.2287 10.936-30.0789 12.5464-13.1726L12.5464-13.1726C19.5045-8.02945 27.2925-4.11796 35.5719-1.6082C37.4362-4.11672 39.0859-6.77797 40.5034-9.56368C37.811-10.5697 35.2124-11.8109 32.7376-13.2729C33.3889-13.7455 34.0259-14.2324 34.6415-14.705C49.2212-7.84548 66.0985-7.84548 80.6782-14.705C81.3009-14.1966 81.9379-13.7097 82.5821-13.2729C80.1025-11.8085 77.4991-10.565 74.8019-9.55652C76.2177-6.7721 77.8675-4.11309 79.7334-1.6082C88.02-4.10789 95.8139-8.01753 102.773-13.1655L102.773-13.1655C104.663-32.7713 99.5452-49.7636 89.2457-64.8296Z"/>
   <path class="monochrome-1 multicolor-1:tintColor hierarchical-1:primary SFSymbolsPreviewFFFFFF" d="M42.5433-23.5699C38.0556-23.5699 34.348-27.6443 34.348-32.6568C34.348-37.6692 37.9268-41.7794 42.529-41.7794C47.1312-41.7794 50.8102-37.6692 50.7314-32.6568C50.6527-27.6443 47.1169-23.5699 42.5433-23.5699ZM72.7764-23.5699C68.2815-23.5699 64.5883-27.6443 64.5883-32.6568C64.5883-37.6692 68.167-41.7794 72.7764-41.7794C77.3858-41.7794 81.0361-37.6692 80.9573-32.6568C80.8786-27.6443 77.35-23.5699 72.7764-23.5699Z"/>
  </g>
  <g id="Semibold-S" transform="matrix(1 0 0 1 1985.26 696)">
   <path class="monochrome-0 multicolor-0:custom hierarchical-0:secondary SFSymbolsPreview5865F2" d="M89.2457-64.8296C83.2669-67.568 76.9551-69.5108 70.4717-70.6082C69.5845-69.0215 68.7817-67.389 68.0668-65.7175C61.1606-66.7586 54.1376-66.7586 47.2314-65.7175C46.5161-67.3888 45.7134-69.0213 44.8265-70.6082C38.3389-69.5015 32.023-67.5541 26.0382-64.8152C14.1569-47.2287 10.936-30.0789 12.5464-13.1726L12.5464-13.1726C19.5045-8.02945 27.2925-4.11796 35.5719-1.6082C37.4362-4.11672 39.0859-6.77797 40.5034-9.56368C37.811-10.5697 35.2124-11.8109 32.7376-13.2729C33.3889-13.7455 34.0259-14.2324 34.6415-14.705C49.2212-7.84548 66.0985-7.84548 80.6782-14.705C81.3009-14.1966 81.9379-13.7097 82.5821-13.2729C80.1025-11.8085 77.4991-10.565 74.8019-9.55652C76.2177-6.7721 77.8675-4.11309 79.7334-1.6082C88.02-4.10789 95.8139-8.01753 102.773-13.1655L102.773-13.1655C104.663-32.7713 99.5452-49.7636 89.2457-64.8296Z"/>
   <path class="monochrome-1 multicolor-1:tintColor hierarchical-1:primary SFSymbolsPreviewFFFFFF" d="M42.5433-23.5699C38.0556-23.5699 34.348-27.6443 34.348-32.6568C34.348-37.6692 37.9268-41.7794 42.529-41.7794C47.1312-41.7794 50.8102-37.6692 50.7314-32.6568C50.6527-27.6443 47.1169-23.5699 42.5433-23.5699ZM72.7764-23.5699C68.2815-23.5699 64.5883-27.6443 64.5883-32.6568C64.5883-37.6692 68.167-41.7794 72.7764-41.7794C77.3858-41.7794 81.0361-37.6692 80.9573-32.6568C80.8786-27.6443 77.35-23.5699 72.7764-23.5699Z"/>
  </g>
  <g id="Medium-S" transform="matrix(1 0 0 1 1689.05 696)">
   <path class="monochrome-0 multicolor-0:custom hierarchical-0:secondary SFSymbolsPreview5865F2" d="M88.3986-64.3051C82.4855-67.0039 76.2431-68.9185 69.8309-70C68.9534-68.4363 68.1595-66.8274 67.4524-65.1802C60.6222-66.2062 53.6763-66.2062 46.846-65.1802C46.1386-66.8273 45.3446-68.4361 44.4676-70C38.0512-68.9093 31.8048-66.9902 25.8857-64.291C14.1349-46.9593 10.9495-30.0581 12.5422-13.3968L12.5422-13.3968C19.4238-8.32819 27.1262-4.47339 35.3147-2C37.1585-4.47217 38.79-7.09484 40.192-9.84018C37.5292-10.8316 34.9591-12.0548 32.5115-13.4956C33.1556-13.9614 33.7857-14.4413 34.3944-14.907C48.8139-8.14689 65.5058-8.14689 79.9253-14.907C80.5411-14.406 81.1711-13.9261 81.8082-13.4956C79.3559-12.0525 76.7811-10.827 74.1136-9.83313C75.5138-7.08906 77.1454-4.46858 78.9908-2C87.1863-4.46346 94.8947-8.31644 101.777-13.3898L101.777-13.3898C103.646-32.7115 98.585-49.4575 88.3986-64.3051Z"/>
   <path class="monochrome-1 multicolor-1:tintColor hierarchical-1:primary SFSymbolsPreviewFFFFFF" d="M42.2094-23.6434C37.771-23.6434 34.1042-27.6588 34.1042-32.5986C34.1042-37.5384 37.6436-41.589 42.1953-41.589C46.7469-41.589 50.3854-37.5384 50.3076-32.5986C50.2297-27.6588 46.7328-23.6434 42.2094-23.6434ZM72.1103-23.6434C67.6648-23.6434 64.0121-27.6588 64.0121-32.5986C64.0121-37.5384 67.5515-41.589 72.1103-41.589C76.669-41.589 80.2792-37.5384 80.2013-32.5986C80.1235-27.6588 76.6336-23.6434 72.1103-23.6434Z"/>
  </g>
  <g id="Regular-S" transform="matrix(1 0 0 1 1392.34 696)">
   <path class="monochrome-0 multicolor-0:custom hierarchical-0:secondary SFSymbolsPreview5865F2" d="M88.3986-64.3051C82.4855-67.0039 76.2431-68.9185 69.8309-70C68.9534-68.4363 68.1595-66.8274 67.4524-65.1802C60.6222-66.2062 53.6763-66.2062 46.846-65.1802C46.1386-66.8273 45.3446-68.4361 44.4676-70C38.0512-68.9093 31.8048-66.9902 25.8857-64.291C14.1349-46.9593 10.9495-30.0581 12.5422-13.3968L12.5422-13.3968C19.4238-8.32819 27.1262-4.47339 35.3147-2C37.1585-4.47217 38.79-7.09484 40.192-9.84018C37.5292-10.8316 34.9591-12.0548 32.5115-13.4956C33.1556-13.9614 33.7857-14.4413 34.3944-14.907C48.8139-8.14689 65.5058-8.14689 79.9253-14.907C80.5411-14.406 81.1711-13.9261 81.8082-13.4956C79.3559-12.0525 76.7811-10.827 74.1136-9.83313C75.5138-7.08906 77.1454-4.46858 78.9908-2C87.1863-4.46346 94.8947-8.31644 101.777-13.3898L101.777-13.3898C103.646-32.7115 98.585-49.4575 88.3986-64.3051Z"/>
   <path class="monochrome-1 multicolor-1:tintColor hierarchical-1:primary SFSymbolsPreviewFFFFFF" d="M42.2094-23.6434C37.771-23.6434 34.1042-27.6588 34.1042-32.5986C34.1042-37.5384 37.6436-41.589 42.1953-41.589C46.7469-41.589 50.3854-37.5384 50.3076-32.5986C50.2297-27.6588 46.7328-23.6434 42.2094-23.6434ZM72.1103-23.6434C67.6648-23.6434 64.0121-27.6588 64.0121-32.5986C64.0121-37.5384 67.5515-41.589 72.1103-41.589C76.669-41.589 80.2792-37.5384 80.2013-32.5986C80.1235-27.6588 76.6336-23.6434 72.1103-23.6434Z"/>
  </g>
  <g id="Light-S" transform="matrix(1 0 0 1 1096.13 696)">
   <path class="monochrome-0 multicolor-0:custom hierarchical-0:secondary SFSymbolsPreview5865F2" d="M87.5515-63.5388C81.7041-66.1978 75.5311-68.0843 69.1901-69.1499C68.3224-67.6092 67.5373-66.024 66.8381-64.4009C60.0837-65.4119 53.215-65.4119 46.4606-64.4009C45.761-66.0238 44.9759-67.609 44.1086-69.1499C37.7636-68.0753 31.5865-66.1844 25.7332-63.5248C14.113-46.4481 10.9629-29.7954 12.5379-13.3791L12.5379-13.3791C19.343-8.38503 26.9599-4.58691 35.0574-2.1499C36.8807-4.58571 38.4941-7.16982 39.8805-9.87479C37.2473-10.8517 34.7058-12.0569 32.2853-13.4765C32.9224-13.9354 33.5454-14.4082 34.1474-14.8671C48.4066-8.20639 64.913-8.20639 79.1723-14.8671C79.7813-14.3734 80.4043-13.9006 81.0343-13.4765C78.6093-12.0546 76.0631-10.847 73.4252-9.86783C74.8099-7.16412 76.4234-4.58218 78.2483-2.1499C86.3527-4.57714 93.9754-8.37345 100.782-13.3722L100.782-13.3722C102.63-32.4098 97.6247-48.9094 87.5515-63.5388Z"/>
   <path class="monochrome-1 multicolor-1:tintColor hierarchical-1:primary SFSymbolsPreviewFFFFFF" d="M41.8755-23.475C37.4865-23.475 33.8604-27.4313 33.8604-32.2985C33.8604-37.1657 37.3604-41.1567 41.8615-41.1567C46.3626-41.1567 49.9607-37.1657 49.8837-32.2985C49.8067-27.4313 46.3486-23.475 41.8755-23.475ZM71.4441-23.475C67.0481-23.475 63.436-27.4313 63.436-32.2985C63.436-37.1657 66.9361-41.1567 71.4441-41.1567C75.9522-41.1567 79.5223-37.1657 79.4453-32.2985C79.3683-27.4313 75.9172-23.475 71.4441-23.475Z"/>
  </g>
  <g id="Thin-S" transform="matrix(1 0 0 1 799.417 696)">
   <path class="monochrome-0 multicolor-0:custom hierarchical-0:secondary SFSymbolsPreview5865F2" d="M87.5515-63.5388C81.7041-66.1978 75.5311-68.0843 69.1901-69.1499C68.3224-67.6092 67.5373-66.024 66.8381-64.4009C60.0837-65.4119 53.215-65.4119 46.4606-64.4009C45.761-66.0238 44.9759-67.609 44.1086-69.1499C37.7636-68.0753 31.5865-66.1844 25.7332-63.5248C14.113-46.4481 10.9629-29.7954 12.5379-13.3791L12.5379-13.3791C19.343-8.38503 26.9599-4.58691 35.0574-2.1499C36.8807-4.58571 38.4941-7.16982 39.8805-9.87479C37.2473-10.8517 34.7058-12.0569 32.2853-13.4765C32.9224-13.9354 33.5454-14.4082 34.1474-14.8671C48.4066-8.20639 64.913-8.20639 79.1723-14.8671C79.7813-14.3734 80.4043-13.9006 81.0343-13.4765C78.6093-12.0546 76.0631-10.847 73.4252-9.86783C74.8099-7.16412 76.4234-4.58218 78.2483-2.1499C86.3527-4.57714 93.9754-8.37345 100.782-13.3722L100.782-13.3722C102.63-32.4098 97.6247-48.9094 87.5515-63.5388Z"/>
   <path class="monochrome-1 multicolor-1:tintColor hierarchical-1:primary SFSymbolsPreviewFFFFFF" d="M41.8755-23.475C37.4865-23.475 33.8604-27.4313 33.8604-32.2985C33.8604-37.1657 37.3604-41.1567 41.8615-41.1567C46.3626-41.1567 49.9607-37.1657 49.8837-32.2985C49.8067-27.4313 46.3486-23.475 41.8755-23.475ZM71.4441-23.475C67.0481-23.475 63.436-27.4313 63.436-32.2985C63.436-37.1657 66.9361-41.1567 71.4441-41.1567C75.9522-41.1567 79.5223-37.1657 79.4453-32.2985C79.3683-27.4313 75.9172-23.475 71.4441-23.475Z"/>
  </g>
  <g id="Ultralight-S" transform="matrix(1 0 0 1 503.206 696)">
   <path class="monochrome-0 multicolor-0:custom hierarchical-0:secondary SFSymbolsPreview5865F2" d="M86.7044-63.6225C80.9227-66.2419 74.819-68.1002 68.5493-69.1499C67.6914-67.6322 66.9151-66.0706 66.2237-64.4718C59.5452-65.4677 52.7537-65.4677 46.0752-64.4718C45.3835-66.0705 44.6072-67.632 43.7496-69.1499C37.4759-68.0913 31.3682-66.2286 25.5807-63.6088C14.091-46.7869 10.9764-30.3828 12.5337-14.2115L12.5337-14.2115C19.2623-9.29197 26.7936-5.55054 34.8001-3.1499C36.603-5.54936 38.1982-8.09489 39.569-10.7595C36.9654-11.7218 34.4524-12.909 32.0592-14.3074C32.6891-14.7595 33.3051-15.2252 33.9003-15.6773C47.9994-9.11599 64.3203-9.11599 78.4194-15.6773C79.0215-15.191 79.6375-14.7252 80.2605-14.3074C77.8626-12.9067 75.3451-11.7172 72.7368-10.7526C74.1059-8.08928 75.7013-5.54588 77.5057-3.1499C85.5191-5.54091 93.0561-9.28056 99.786-14.2047L99.786-14.2047C101.613-32.9581 96.6644-49.2115 86.7044-63.6225Z"/>
   <path class="monochrome-1 multicolor-1:tintColor hierarchical-1:primary SFSymbolsPreviewFFFFFF" d="M41.5417-24.1567C37.2019-24.1567 33.6166-28.054 33.6166-32.8485C33.6166-37.6431 37.0773-41.5746 41.5278-41.5746C45.9783-41.5746 49.536-37.6431 49.4598-32.8485C49.3837-28.054 45.9645-24.1567 41.5417-24.1567ZM70.778-24.1567C66.4313-24.1567 62.8598-28.054 62.8598-32.8485C62.8598-37.6431 66.3206-41.5746 70.778-41.5746C75.2355-41.5746 78.7654-37.6431 78.6893-32.8485C78.6132-28.054 75.2009-24.1567 70.778-24.1567Z"/>
  </g>
 </g>
</svg>
