<svg width="240" height="361" viewBox="0 0 240 361" fill="none" xmlns="http://www.w3.org/2000/svg">
<path d="M240 225.171C240 233.421 233.25 240.171 225 240.171H15C6.75 240.171 0 233.421 0 225.171V135.171C0 126.921 4.77 115.401 10.61 109.561L109.39 10.7805C115.22 4.95052 124.77 4.95052 130.6 10.7805L229.39 109.571C235.22 115.401 240 126.931 240 135.181V225.181V225.171Z" fill="#F2F4F9"/>
<path d="M229.39 109.561L130.61 10.7805C124.78 4.95052 115.23 4.95052 109.4 10.7805L10.61 109.561C4.78 115.391 0 126.921 0 135.171V225.171C0 233.421 6.75 240.171 15 240.171H107.27L66.64 199.541C64.55 200.261 62.32 200.671 60 200.671C48.7 200.671 39.5 191.471 39.5 180.171C39.5 168.871 48.7 159.671 60 159.671C71.3 159.671 80.5 168.871 80.5 180.171C80.5 182.501 80.09 184.731 79.37 186.821L111 218.451V102.571C104.2 99.2305 99.5 92.2505 99.5 84.1805C99.5 72.8805 108.7 63.6805 120 63.6805C131.3 63.6805 140.5 72.8805 140.5 84.1805C140.5 92.2505 135.8 99.2305 129 102.571V183.841L160.46 152.381C159.84 150.421 159.5 148.341 159.5 146.181C159.5 134.881 168.7 125.681 180 125.681C191.3 125.681 200.5 134.881 200.5 146.181C200.5 157.481 191.3 166.681 180 166.681C177.5 166.681 175.12 166.211 172.91 165.391L129 209.301V240.181H225C233.25 240.181 240 233.431 240 225.181V135.181C240 126.931 235.23 115.411 229.39 109.571V109.561Z" fill="#18BCF2"/>
<path d="M4.08002 260.408H11.224V277.984L29.76 278.04V260.408H36.96V302.456H29.76V284.368L11.224 284.312V302.456H4.08002V260.408Z" fill="#1D2126"/>
<path d="M57.864 273.264C62.216 273.264 65.76 274.664 68.496 277.456C71.232 280.248 72.6 283.84 72.6 288.224C72.6 292.608 71.232 296.176 68.496 298.968C65.76 301.76 62.216 303.16 57.864 303.16C53.512 303.16 49.912 301.76 47.176 298.968C44.44 296.176 43.072 292.592 43.072 288.224C43.072 283.856 44.44 280.224 47.176 277.44C49.912 274.656 53.48 273.264 57.864 273.264ZM57.864 297.032C60.192 297.032 62.08 296.208 63.528 294.568C64.984 292.928 65.704 290.792 65.704 288.168C65.704 285.544 64.976 283.416 63.528 281.8C62.072 280.176 60.184 279.368 57.864 279.368C55.544 279.368 53.56 280.176 52.096 281.8C50.632 283.424 49.904 285.544 49.904 288.168C49.904 290.792 50.632 292.928 52.096 294.568C53.56 296.208 55.48 297.032 57.864 297.032Z" fill="#1D2126"/>
<path d="M121.192 284.368V302.456H114.584V285.416C114.584 283.448 114.08 281.912 113.064 280.8C112.048 279.688 110.672 279.144 108.928 279.144C107.072 279.144 105.592 279.752 104.488 280.96C103.384 282.168 102.832 283.864 102.832 286.04V302.464H96.136V285.424C96.136 283.456 95.64 281.92 94.656 280.808C93.672 279.696 92.304 279.152 90.56 279.152C88.704 279.152 87.216 279.76 86.088 280.968C84.96 282.176 84.4 283.872 84.4 286.048V302.472H77.592V274.064H83.92L84.144 276.792C85.792 274.376 88.488 273.16 92.216 273.16C94.392 273.16 96.272 273.608 97.872 274.512C99.464 275.408 100.672 276.728 101.504 278.448C102.2 276.8 103.344 275.504 104.952 274.568C106.56 273.632 108.464 273.16 110.672 273.16C113.896 273.16 116.456 274.152 118.352 276.144C120.248 278.128 121.192 280.88 121.192 284.384V284.368Z" fill="#1D2126"/>
<path d="M154.2 290.752H132.432C132.656 292.888 133.464 294.52 134.848 295.648C136.232 296.776 138 297.336 140.136 297.336C143.608 297.336 146.032 295.896 147.424 293.008L153.104 295.256C152.032 297.752 150.352 299.696 148.056 301.104C145.76 302.512 143.12 303.216 140.136 303.216C135.936 303.216 132.528 301.84 129.912 299.096C127.296 296.352 125.992 292.744 125.992 288.28C125.992 283.816 127.312 280.192 129.944 277.392C132.576 274.6 136.024 273.2 140.28 273.2C144.536 273.2 147.824 274.576 150.376 277.336C152.928 280.096 154.2 283.72 154.2 288.224V290.752ZM132.544 285.968H147.28C147.152 283.664 146.448 281.904 145.184 280.696C143.92 279.488 142.216 278.88 140.08 278.88C137.944 278.88 136.24 279.496 134.904 280.72C133.576 281.952 132.784 283.696 132.544 285.968Z" fill="#1D2126"/>
<path d="M26.832 350.264H10.832L7.37603 360.048H3.05176e-05L15.184 318H22.552L37.768 360.048H30.232L26.832 350.264ZM24.752 344.216L18.872 327.4L12.936 344.216H24.752Z" fill="#1D2126"/>
<path d="M51.12 355.328C52.528 355.328 53.64 355.048 54.456 354.496C55.272 353.944 55.68 353.12 55.68 352.032C55.68 350.512 54.656 349.504 52.616 348.992L48.704 347.952C43.32 346.488 40.632 343.72 40.632 339.656C40.632 337.048 41.576 334.92 43.472 333.272C45.368 331.624 47.912 330.8 51.12 330.8C53.992 330.8 56.392 331.456 58.336 332.768C60.28 334.08 61.464 335.88 61.896 338.168L55.792 339.6C55.664 338.568 55.184 337.752 54.368 337.152C53.552 336.552 52.544 336.256 51.344 336.256C50.144 336.256 49.144 336.56 48.392 337.168C47.64 337.776 47.264 338.568 47.264 339.544C47.264 340.328 47.544 340.984 48.104 341.512C48.664 342.04 49.536 342.456 50.72 342.776L54.576 343.736C57.144 344.432 59.104 345.48 60.456 346.888C61.808 348.296 62.48 350.032 62.48 352.088C62.48 354.752 61.48 356.872 59.472 358.448C57.464 360.024 54.704 360.808 51.176 360.808C47.912 360.808 45.296 360.088 43.328 358.656C41.36 357.224 40.2 355.288 39.84 352.848L46.056 351.752C46.168 352.88 46.672 353.752 47.56 354.384C48.448 355.016 49.64 355.328 51.12 355.328Z" fill="#1D2126"/>
<path d="M76.92 355.328C78.328 355.328 79.44 355.048 80.256 354.496C81.072 353.944 81.48 353.12 81.48 352.032C81.48 350.512 80.456 349.504 78.416 348.992L74.504 347.952C69.12 346.488 66.432 343.72 66.432 339.656C66.432 337.048 67.376 334.92 69.272 333.272C71.168 331.624 73.712 330.8 76.92 330.8C79.792 330.8 82.192 331.456 84.136 332.768C86.08 334.08 87.2641 335.88 87.6961 338.168L81.592 339.6C81.464 338.568 80.984 337.752 80.168 337.152C79.352 336.552 78.344 336.256 77.144 336.256C75.944 336.256 74.944 336.56 74.192 337.168C73.44 337.776 73.064 338.568 73.064 339.544C73.064 340.328 73.344 340.984 73.904 341.512C74.464 342.04 75.336 342.456 76.52 342.776L80.376 343.736C82.944 344.432 84.904 345.48 86.256 346.888C87.608 348.296 88.28 350.032 88.28 352.088C88.28 354.752 87.28 356.872 85.272 358.448C83.264 360.024 80.504 360.808 76.976 360.808C73.712 360.808 71.096 360.088 69.128 358.656C67.16 357.224 66 355.288 65.64 352.848L71.856 351.752C71.968 352.88 72.472 353.752 73.36 354.384C74.248 355.016 75.44 355.328 76.92 355.328Z" fill="#1D2126"/>
<path d="M92.6 321.808C92.6 320.592 93.016 319.568 93.848 318.744C94.68 317.92 95.696 317.504 96.896 317.504C98.096 317.504 99.088 317.928 99.92 318.768C100.752 319.608 101.168 320.624 101.168 321.808C101.168 322.992 100.752 324.008 99.92 324.856C99.088 325.712 98.08 326.136 96.896 326.136C95.712 326.136 94.704 325.712 93.856 324.856C93.008 324 92.592 322.984 92.592 321.808H92.6ZM100.304 331.648V360.056H93.496V331.648H100.304Z" fill="#1D2126"/>
<path d="M116.776 355.328C118.184 355.328 119.296 355.048 120.112 354.496C120.928 353.944 121.336 353.12 121.336 352.032C121.336 350.512 120.312 349.504 118.272 348.992L114.36 347.952C108.976 346.488 106.288 343.72 106.288 339.656C106.288 337.048 107.232 334.92 109.128 333.272C111.024 331.624 113.568 330.8 116.776 330.8C119.648 330.8 122.048 331.456 123.992 332.768C125.936 334.08 127.12 335.88 127.552 338.168L121.448 339.6C121.32 338.568 120.84 337.752 120.024 337.152C119.208 336.552 118.2 336.256 117 336.256C115.8 336.256 114.8 336.56 114.048 337.168C113.296 337.776 112.92 338.568 112.92 339.544C112.92 340.328 113.2 340.984 113.76 341.512C114.32 342.04 115.192 342.456 116.376 342.776L120.232 343.736C122.8 344.432 124.76 345.48 126.112 346.888C127.464 348.296 128.136 350.032 128.136 352.088C128.136 354.752 127.136 356.872 125.128 358.448C123.12 360.024 120.36 360.808 116.832 360.808C113.568 360.808 110.952 360.088 108.984 358.656C107.016 357.224 105.856 355.288 105.496 352.848L111.712 351.752C111.824 352.88 112.328 353.752 113.216 354.384C114.104 355.016 115.296 355.328 116.776 355.328Z" fill="#1D2126"/>
<path d="M148.464 360.056C146.512 360.488 144.864 360.704 143.512 360.704C140.64 360.704 138.408 359.92 136.808 358.344C135.208 356.768 134.4 354.424 134.4 351.312V337.416H130.04V331.648H134.4V322.792H141.152V331.648H147.704V337.416H141.152V350.104C141.152 353.176 142.344 354.72 144.72 354.72C145.488 354.72 146.448 354.52 147.592 354.128L148.464 360.064V360.056Z" fill="#1D2126"/>
<path d="M171.256 360.056C171.032 359.136 170.872 358.056 170.776 356.824C169.952 358.04 168.784 359.016 167.272 359.736C165.76 360.456 164.016 360.816 162.024 360.816C158.912 360.816 156.416 359.984 154.544 358.328C152.672 356.672 151.728 354.424 151.728 351.592C151.728 348.76 152.648 346.648 154.496 345.08C156.344 343.512 158.872 342.728 162.072 342.728H170.592V341.632C170.592 339.848 170.072 338.52 169.032 337.64C167.992 336.76 166.536 336.32 164.656 336.32C161.336 336.32 158.96 337.704 157.512 340.48L152.56 337.584C154.96 333.064 159.112 330.808 165.016 330.808C168.6 330.808 171.528 331.728 173.816 333.568C176.12 335.424 177.272 338.416 177.272 342.536V353.84C177.272 357.048 177.44 359.12 177.776 360.056H171.224H171.256ZM170.664 347.424H163.664C162.072 347.424 160.832 347.792 159.952 348.52C159.072 349.248 158.632 350.256 158.632 351.528C158.632 352.8 159.08 353.872 159.984 354.568C160.888 355.264 162.168 355.608 163.84 355.608C165.848 355.608 167.488 354.976 168.76 353.712C170.032 352.448 170.672 350.568 170.672 348.072V347.424H170.664Z" fill="#1D2126"/>
<path d="M210 342.536V360.056H203.224V344C203.224 341.296 202.584 339.456 201.312 338.456C200.096 337.464 198.672 336.968 197.04 336.968C195.072 336.968 193.432 337.6 192.12 338.856C190.808 340.112 190.152 341.904 190.152 344.224V360.056H183.344V331.648H189.728L189.952 334.712C190.76 333.512 191.928 332.56 193.464 331.856C195 331.152 196.68 330.8 198.496 330.8C202.168 330.8 205.008 331.816 207 333.848C208.992 335.88 209.992 338.776 209.992 342.528L210 342.536Z" fill="#1D2126"/>
<path d="M231.728 360.056C229.776 360.488 228.128 360.704 226.776 360.704C223.904 360.704 221.672 359.92 220.072 358.344C218.472 356.768 217.664 354.424 217.664 351.312V337.416H213.304V331.648H217.664V322.792H224.416V331.648H230.968V337.416H224.416V350.104C224.416 353.176 225.608 354.72 227.984 354.72C228.752 354.72 229.712 354.52 230.856 354.128L231.728 360.064V360.056Z" fill="#1D2126"/>
</svg>
