<svg width="240" height="361" viewBox="0 0 240 361" fill="none" xmlns="http://www.w3.org/2000/svg">
<path d="M240 224.762C240 233.012 233.25 239.762 225 239.762H15C6.75 239.762 0 233.012 0 224.762V134.762C0 126.512 4.77 114.993 10.61 109.153L109.39 10.3725C115.22 4.5425 124.77 4.5425 130.6 10.3725L229.39 109.162C235.22 114.992 240 126.522 240 134.772V224.772V224.762Z" fill="#F2F4F9"/>
<path d="M229.39 109.153L130.61 10.3725C124.78 4.5425 115.23 4.5425 109.4 10.3725L10.61 109.153C4.78 114.983 0 126.512 0 134.762V224.762C0 233.012 6.75 239.762 15 239.762H107.27L66.64 199.132C64.55 199.852 62.32 200.262 60 200.262C48.7 200.262 39.5 191.062 39.5 179.762C39.5 168.462 48.7 159.262 60 159.262C71.3 159.262 80.5 168.462 80.5 179.762C80.5 182.092 80.09 184.322 79.37 186.412L111 218.042V102.162C104.2 98.8225 99.5 91.8425 99.5 83.7725C99.5 72.4725 108.7 63.2725 120 63.2725C131.3 63.2725 140.5 72.4725 140.5 83.7725C140.5 91.8425 135.8 98.8225 129 102.162V183.432L160.46 151.972C159.84 150.012 159.5 147.932 159.5 145.772C159.5 134.472 168.7 125.272 180 125.272C191.3 125.272 200.5 134.472 200.5 145.772C200.5 157.072 191.3 166.272 180 166.272C177.5 166.272 175.12 165.802 172.91 164.982L129 208.892V239.772H225C233.25 239.772 240 233.022 240 224.772V134.772C240 126.522 235.23 115.002 229.39 109.162V109.153Z" fill="#18BCF2"/>
<path d="M4.08002 260H11.224V277.576L29.76 277.632V260H36.96V302.048H29.76V283.96L11.224 283.904V302.048H4.08002V260Z" fill="#F2F4F9"/>
<path d="M57.864 272.856C62.216 272.856 65.76 274.256 68.496 277.048C71.232 279.84 72.6 283.432 72.6 287.816C72.6 292.2 71.232 295.768 68.496 298.56C65.76 301.352 62.216 302.752 57.864 302.752C53.512 302.752 49.912 301.352 47.176 298.56C44.44 295.768 43.072 292.184 43.072 287.816C43.072 283.448 44.44 279.816 47.176 277.032C49.912 274.248 53.48 272.856 57.864 272.856ZM57.864 296.624C60.192 296.624 62.08 295.8 63.528 294.16C64.984 292.52 65.704 290.384 65.704 287.76C65.704 285.136 64.976 283.008 63.528 281.392C62.072 279.768 60.184 278.96 57.864 278.96C55.544 278.96 53.56 279.768 52.096 281.392C50.632 283.016 49.904 285.136 49.904 287.76C49.904 290.384 50.632 292.52 52.096 294.16C53.56 295.8 55.48 296.624 57.864 296.624Z" fill="#F2F4F9"/>
<path d="M121.192 283.96V302.048H114.584V285.008C114.584 283.04 114.08 281.504 113.064 280.392C112.048 279.28 110.672 278.736 108.928 278.736C107.072 278.736 105.592 279.344 104.488 280.552C103.384 281.76 102.832 283.456 102.832 285.632V302.056H96.136V285.016C96.136 283.048 95.64 281.512 94.656 280.4C93.672 279.288 92.304 278.744 90.56 278.744C88.704 278.744 87.216 279.352 86.088 280.56C84.96 281.768 84.4 283.464 84.4 285.64V302.064H77.592V273.656H83.92L84.144 276.384C85.792 273.968 88.488 272.752 92.216 272.752C94.392 272.752 96.272 273.2 97.872 274.104C99.464 275 100.672 276.32 101.504 278.04C102.2 276.392 103.344 275.096 104.952 274.16C106.56 273.224 108.464 272.752 110.672 272.752C113.896 272.752 116.456 273.744 118.352 275.736C120.248 277.72 121.192 280.472 121.192 283.976V283.96Z" fill="#F2F4F9"/>
<path d="M154.2 290.344H132.432C132.656 292.48 133.464 294.112 134.848 295.24C136.232 296.368 138 296.928 140.136 296.928C143.608 296.928 146.032 295.488 147.424 292.6L153.104 294.848C152.032 297.344 150.352 299.288 148.056 300.696C145.76 302.104 143.12 302.808 140.136 302.808C135.936 302.808 132.528 301.432 129.912 298.688C127.296 295.944 125.992 292.336 125.992 287.872C125.992 283.408 127.312 279.784 129.944 276.984C132.576 274.192 136.024 272.792 140.28 272.792C144.536 272.792 147.824 274.168 150.376 276.928C152.928 279.688 154.2 283.312 154.2 287.816V290.344ZM132.544 285.56H147.28C147.152 283.256 146.448 281.496 145.184 280.288C143.92 279.08 142.216 278.472 140.08 278.472C137.944 278.472 136.24 279.088 134.904 280.312C133.576 281.544 132.784 283.288 132.544 285.56Z" fill="#F2F4F9"/>
<path d="M26.832 349.856H10.832L7.37603 359.64H3.05176e-05L15.184 317.592H22.552L37.768 359.64H30.232L26.832 349.856ZM24.752 343.808L18.872 326.992L12.936 343.808H24.752Z" fill="#F2F4F9"/>
<path d="M51.12 354.92C52.528 354.92 53.64 354.64 54.456 354.088C55.272 353.536 55.68 352.712 55.68 351.624C55.68 350.104 54.656 349.096 52.616 348.584L48.704 347.544C43.32 346.08 40.632 343.312 40.632 339.248C40.632 336.64 41.576 334.512 43.472 332.864C45.368 331.216 47.912 330.392 51.12 330.392C53.992 330.392 56.392 331.048 58.336 332.36C60.28 333.672 61.464 335.472 61.896 337.76L55.792 339.192C55.664 338.16 55.184 337.344 54.368 336.744C53.552 336.144 52.544 335.848 51.344 335.848C50.144 335.848 49.144 336.152 48.392 336.76C47.64 337.368 47.264 338.16 47.264 339.136C47.264 339.92 47.544 340.576 48.104 341.104C48.664 341.632 49.536 342.048 50.72 342.368L54.576 343.328C57.144 344.024 59.104 345.072 60.456 346.48C61.808 347.888 62.48 349.624 62.48 351.68C62.48 354.344 61.48 356.464 59.472 358.04C57.464 359.616 54.704 360.4 51.176 360.4C47.912 360.4 45.296 359.68 43.328 358.248C41.36 356.816 40.2 354.88 39.84 352.44L46.056 351.344C46.168 352.472 46.672 353.344 47.56 353.976C48.448 354.608 49.64 354.92 51.12 354.92Z" fill="#F2F4F9"/>
<path d="M76.92 354.92C78.328 354.92 79.44 354.64 80.256 354.088C81.072 353.536 81.48 352.712 81.48 351.624C81.48 350.104 80.456 349.096 78.416 348.584L74.504 347.544C69.12 346.08 66.432 343.312 66.432 339.248C66.432 336.64 67.376 334.512 69.272 332.864C71.168 331.216 73.712 330.392 76.92 330.392C79.792 330.392 82.192 331.048 84.136 332.36C86.08 333.672 87.2641 335.472 87.6961 337.76L81.592 339.192C81.464 338.16 80.984 337.344 80.168 336.744C79.352 336.144 78.344 335.848 77.144 335.848C75.944 335.848 74.944 336.152 74.192 336.76C73.44 337.368 73.064 338.16 73.064 339.136C73.064 339.92 73.344 340.576 73.904 341.104C74.464 341.632 75.336 342.048 76.52 342.368L80.376 343.328C82.944 344.024 84.904 345.072 86.256 346.48C87.608 347.888 88.28 349.624 88.28 351.68C88.28 354.344 87.28 356.464 85.272 358.04C83.264 359.616 80.504 360.4 76.976 360.4C73.712 360.4 71.096 359.68 69.128 358.248C67.16 356.816 66 354.88 65.64 352.44L71.856 351.344C71.968 352.472 72.472 353.344 73.36 353.976C74.248 354.608 75.44 354.92 76.92 354.92Z" fill="#F2F4F9"/>
<path d="M92.6 321.4C92.6 320.184 93.016 319.16 93.848 318.336C94.68 317.512 95.696 317.096 96.896 317.096C98.096 317.096 99.088 317.52 99.92 318.36C100.752 319.2 101.168 320.216 101.168 321.4C101.168 322.584 100.752 323.6 99.92 324.448C99.088 325.304 98.08 325.728 96.896 325.728C95.712 325.728 94.704 325.304 93.856 324.448C93.008 323.592 92.592 322.576 92.592 321.4H92.6ZM100.304 331.24V359.648H93.496V331.24H100.304Z" fill="#F2F4F9"/>
<path d="M116.776 354.92C118.184 354.92 119.296 354.64 120.112 354.088C120.928 353.536 121.336 352.712 121.336 351.624C121.336 350.104 120.312 349.096 118.272 348.584L114.36 347.544C108.976 346.08 106.288 343.312 106.288 339.248C106.288 336.64 107.232 334.512 109.128 332.864C111.024 331.216 113.568 330.392 116.776 330.392C119.648 330.392 122.048 331.048 123.992 332.36C125.936 333.672 127.12 335.472 127.552 337.76L121.448 339.192C121.32 338.16 120.84 337.344 120.024 336.744C119.208 336.144 118.2 335.848 117 335.848C115.8 335.848 114.8 336.152 114.048 336.76C113.296 337.368 112.92 338.16 112.92 339.136C112.92 339.92 113.2 340.576 113.76 341.104C114.32 341.632 115.192 342.048 116.376 342.368L120.232 343.328C122.8 344.024 124.76 345.072 126.112 346.48C127.464 347.888 128.136 349.624 128.136 351.68C128.136 354.344 127.136 356.464 125.128 358.04C123.12 359.616 120.36 360.4 116.832 360.4C113.568 360.4 110.952 359.68 108.984 358.248C107.016 356.816 105.856 354.88 105.496 352.44L111.712 351.344C111.824 352.472 112.328 353.344 113.216 353.976C114.104 354.608 115.296 354.92 116.776 354.92Z" fill="#F2F4F9"/>
<path d="M148.464 359.648C146.512 360.08 144.864 360.296 143.512 360.296C140.64 360.296 138.408 359.512 136.808 357.936C135.208 356.36 134.4 354.016 134.4 350.904V337.008H130.04V331.24H134.4V322.384H141.152V331.24H147.704V337.008H141.152V349.696C141.152 352.768 142.344 354.312 144.72 354.312C145.488 354.312 146.448 354.112 147.592 353.72L148.464 359.656V359.648Z" fill="#F2F4F9"/>
<path d="M171.256 359.648C171.032 358.728 170.872 357.648 170.776 356.416C169.952 357.632 168.784 358.608 167.272 359.328C165.76 360.048 164.016 360.408 162.024 360.408C158.912 360.408 156.416 359.576 154.544 357.92C152.672 356.264 151.728 354.016 151.728 351.184C151.728 348.352 152.648 346.24 154.496 344.672C156.344 343.104 158.872 342.32 162.072 342.32H170.592V341.224C170.592 339.44 170.072 338.112 169.032 337.232C167.992 336.352 166.536 335.912 164.656 335.912C161.336 335.912 158.96 337.296 157.512 340.072L152.56 337.176C154.96 332.656 159.112 330.4 165.016 330.4C168.6 330.4 171.528 331.32 173.816 333.16C176.12 335.016 177.272 338.008 177.272 342.128V353.432C177.272 356.64 177.44 358.712 177.776 359.648H171.224H171.256ZM170.664 347.016H163.664C162.072 347.016 160.832 347.384 159.952 348.112C159.072 348.84 158.632 349.848 158.632 351.12C158.632 352.392 159.08 353.464 159.984 354.16C160.888 354.856 162.168 355.2 163.84 355.2C165.848 355.2 167.488 354.568 168.76 353.304C170.032 352.04 170.672 350.16 170.672 347.664V347.016H170.664Z" fill="#F2F4F9"/>
<path d="M210 342.128V359.648H203.224V343.592C203.224 340.888 202.584 339.048 201.312 338.048C200.096 337.056 198.672 336.56 197.04 336.56C195.072 336.56 193.432 337.192 192.12 338.448C190.808 339.704 190.152 341.496 190.152 343.816V359.648H183.344V331.24H189.728L189.952 334.304C190.76 333.104 191.928 332.152 193.464 331.448C195 330.744 196.68 330.392 198.496 330.392C202.168 330.392 205.008 331.408 207 333.44C208.992 335.472 209.992 338.368 209.992 342.12L210 342.128Z" fill="#F2F4F9"/>
<path d="M231.728 359.648C229.776 360.08 228.128 360.296 226.776 360.296C223.904 360.296 221.672 359.512 220.072 357.936C218.472 356.36 217.664 354.016 217.664 350.904V337.008H213.304V331.24H217.664V322.384H224.416V331.24H230.968V337.008H224.416V349.696C224.416 352.768 225.608 354.312 227.984 354.312C228.752 354.312 229.712 354.112 230.856 353.72L231.728 359.656V359.648Z" fill="#F2F4F9"/>
</svg>
