<svg width="2960" height="291" viewBox="0 0 2960 291" fill="none" xmlns="http://www.w3.org/2000/svg">
<path d="M106.96 3.72019C102.026 -1.24006 93.9526 -1.24006 89.04 3.72019L9.15819 84.029C4.22431 88.9893 0.1875 98.781 0.1875 105.781V178.617C0.1875 185.618 5.8903 191.372 12.8746 191.372H183.125C190.088 191.372 195.813 185.639 195.813 178.617V105.781C195.813 98.781 191.776 88.9893 186.842 84.029L106.96 3.72019Z" fill="#09202E"/>
<path d="M185.844 223.977C191.246 223.977 195.625 228.356 195.625 233.758V280.219C195.625 285.621 191.246 290 185.844 290H173.617C168.215 290 163.836 285.621 163.836 280.219V255.766H31.7891V280.219C31.7891 285.621 27.4099 290 22.0078 290H9.78125C4.37921 290 0 285.621 0 280.219V233.758C1.54622e-06 228.356 4.37922 223.977 9.78125 223.977H185.844Z" fill="#09202E"/>
<path d="M350.497 65.5889C361.485 65.5889 371.666 67.5681 381.04 71.5526C390.414 75.5111 398.356 81.0062 404.866 88.0116C411.376 95.0171 416.453 103.403 420.099 113.221C423.718 123.039 425.541 133.638 425.541 145.045C425.671 156.322 423.9 166.895 420.255 176.817C416.583 186.74 411.454 195.203 404.866 202.235C398.278 209.267 390.258 214.788 380.832 218.772C371.406 222.783 361.225 224.71 350.288 224.58C335.837 224.788 322.844 221.455 311.334 214.605C299.825 207.756 290.946 198.25 284.697 186.089C278.447 173.927 275.427 160.306 275.635 145.254C275.505 133.977 277.276 123.404 280.921 113.481C284.592 103.559 289.696 95.0953 296.258 88.0116C302.82 80.9541 310.788 75.407 320.188 71.4224C329.588 67.4379 339.691 65.4847 350.497 65.6149V65.5889ZM350.679 194.136C363.646 194.136 373.906 189.734 381.483 180.958C389.06 172.156 392.836 160.202 392.836 145.045C392.836 129.888 389.06 117.752 381.535 108.976C374.01 100.226 363.725 95.8505 350.679 95.8505C337.634 95.8505 327.348 100.226 319.823 108.976C312.298 117.726 308.522 129.758 308.522 145.045C308.522 160.332 312.298 172.338 319.823 181.062C327.348 189.787 337.634 194.162 350.679 194.162V194.136Z" fill="#09202E"/>
<path d="M562.115 119.159C562.115 134.576 557.454 146.972 548.158 156.374C538.862 165.775 526.207 170.489 510.167 170.489H479.728V222.027H448.663V68.3233H510.584C526.676 68.3233 539.279 72.8548 548.418 81.9177C557.558 90.9805 562.115 103.403 562.115 119.133V119.159ZM529.306 118.56C529.306 112.049 527.197 106.658 522.952 102.413C518.708 98.1683 512.589 96.0588 504.569 96.0588H479.728V143.431H504.569C512.641 143.431 518.786 141.139 523.004 136.555C527.223 131.972 529.306 125.982 529.306 118.586V118.56Z" fill="#09202E"/>
<path d="M680.748 222.027H584.013V68.3233H680.748V97.8558H615.052V130.644H673.405V158.145H615.052V192.782H680.748V222.027Z" fill="#09202E"/>
<path d="M842.059 68.3494V222.053H811.203L743.892 117.961V222.053H713.036V68.3494H743.892L811.203 172.65V68.3494H842.059Z" fill="#09202E"/>
<path d="M930.044 68.3494H961.108V130.487L1022.01 130.696V68.3494H1053.29V222.053H1022.01V158.405L961.108 157.988V222.053H930.044V68.3494Z" fill="#09202E"/>
<path d="M1151.04 65.5889C1162.02 65.5889 1172.21 67.5681 1181.58 71.5526C1190.95 75.5111 1198.9 81.0062 1205.41 88.0116C1211.91 95.0171 1216.99 103.403 1220.64 113.221C1224.26 123.039 1226.08 133.638 1226.08 145.045C1226.21 156.322 1224.44 166.895 1220.79 176.817C1217.12 186.74 1211.99 195.203 1205.41 202.235C1198.82 209.267 1190.8 214.788 1181.37 218.772C1171.95 222.783 1161.76 224.71 1150.83 224.58C1136.38 224.788 1123.38 221.455 1111.87 214.605C1100.36 207.756 1091.48 198.25 1085.24 186.089C1078.99 173.927 1075.97 160.306 1076.17 145.254C1076.04 133.977 1077.81 123.404 1081.46 113.481C1085.13 103.559 1090.24 95.0953 1096.8 88.0116C1103.36 80.9541 1111.33 75.407 1120.73 71.4224C1130.13 67.4379 1140.23 65.4847 1151.04 65.6149V65.5889ZM1151.22 194.136C1164.19 194.136 1174.44 189.734 1182.02 180.958C1189.6 172.156 1193.38 160.202 1193.38 145.045C1193.38 129.888 1189.6 117.752 1182.07 108.976C1174.55 100.226 1164.26 95.8505 1151.22 95.8505C1138.17 95.8505 1127.89 100.226 1120.36 108.976C1112.84 117.726 1109.06 129.758 1109.06 145.045C1109.06 160.332 1112.84 172.338 1120.36 181.062C1127.89 189.787 1138.17 194.162 1151.22 194.162V194.136Z" fill="#09202E"/>
<path d="M1404.29 68.3494V222.053H1373.64V138.014L1340.75 222.053H1311.33L1278.83 138.639V222.053H1249.2V68.3494H1278.83L1326.09 185.776L1373.64 68.3494H1404.29Z" fill="#09202E"/>
<path d="M1533.62 222.027H1436.89V68.3233H1533.62V97.8558H1467.93V130.644H1526.28V158.145H1467.93V192.782H1533.62V222.027Z" fill="#09202E"/>
<path d="M1644.08 90.2833V136.429H1703.17V157.506H1644.08V221.846H1620.62V68.0958H1714.32V90.2833H1644.08Z" fill="#09202E"/>
<path d="M1803.78 65.5958C1814.45 65.4569 1824.46 67.4014 1833.73 71.3944C1843.01 75.3875 1850.93 80.9083 1857.46 87.9569C1863.96 95.0055 1869.07 103.478 1872.75 113.304C1876.43 123.165 1878.2 133.686 1878.06 144.901C1878.2 156.186 1876.43 166.811 1872.75 176.707C1869.07 186.637 1863.96 195.075 1857.46 202.124C1850.96 209.137 1843.04 214.658 1833.73 218.651C1824.42 222.644 1814.45 224.589 1803.78 224.45C1793.12 224.589 1783.15 222.644 1773.87 218.651C1764.6 214.658 1756.71 209.137 1750.21 202.089C1743.72 195.04 1738.61 186.568 1734.96 176.742C1731.31 166.915 1729.54 156.36 1729.68 145.144C1729.54 133.929 1731.31 123.374 1734.96 113.512C1738.61 103.651 1743.68 95.1791 1750.21 88.0958C1756.71 81.0472 1764.6 75.4916 1773.87 71.4639C1783.15 67.4361 1793.12 65.4916 1803.78 65.6305V65.5958ZM1768 185.839C1777.07 196.117 1789.05 201.29 1803.99 201.29C1818.93 201.29 1830.92 196.151 1839.95 185.839C1848.98 175.561 1853.5 161.915 1853.5 144.901C1853.5 127.887 1848.98 114.137 1839.95 103.86C1830.92 93.5819 1818.93 88.4083 1803.99 88.4083C1789.05 88.4083 1777.03 93.5819 1768 103.894C1758.93 114.207 1754.42 127.887 1754.42 144.901C1754.42 161.915 1758.93 175.561 1768 185.839Z" fill="#09202E"/>
<path d="M1926.22 68.0611V166.36C1926.29 178.061 1929.72 186.915 1936.53 192.887C1943.34 198.894 1952.31 201.881 1963.39 201.881C1974.47 201.881 1982.95 198.721 1990.04 192.436C1997.12 186.151 2000.67 177.436 2000.67 166.36V68.0611H2024.12V167.297C2024.12 176.325 2022.49 184.485 2019.26 191.811C2016.02 199.137 2011.61 205.179 2006.09 209.867C2000.53 214.589 1994.14 218.2 1986.81 220.769C1979.48 223.339 1971.69 224.589 1963.36 224.589C1955.02 224.589 1947.55 223.339 1940.32 220.874C1933.09 218.408 1926.63 214.832 1921 210.179C1915.34 205.526 1910.89 199.519 1907.63 192.124C1904.36 184.728 1902.73 176.429 1902.73 167.297V68.0611H1926.22Z" fill="#09202E"/>
<path d="M2180.91 68.0611V221.811H2157.46L2081.62 105.943V221.811H2058.17V68.0611H2081.62L2157.46 184.137V68.0611H2180.91Z" fill="#09202E"/>
<path d="M2344.79 145.11C2344.86 156.117 2342.95 166.464 2339.06 176.082C2335.16 185.735 2329.78 193.929 2322.94 200.665C2316.09 207.401 2307.86 212.679 2298.23 216.464C2288.61 220.249 2278.36 222.054 2267.38 221.846H2216.14V68.0958H2267.38C2281.84 67.8875 2295.04 71.0819 2306.92 77.7139C2318.8 84.3111 2328.11 93.5472 2334.85 105.387C2341.59 117.228 2344.89 130.492 2344.79 145.144V145.11ZM2319.88 145.11C2319.88 128.86 2315.05 115.665 2305.36 105.526C2295.66 95.3875 2282.95 90.2833 2267.17 90.2833H2239.8V200.04H2267.17C2283.09 200.04 2295.84 195.006 2305.46 184.901C2315.08 174.832 2319.88 161.533 2319.88 145.11Z" fill="#09202E"/>
<path d="M2447.76 184.867H2386.37L2373.03 221.846H2348.96L2404.54 68.0958H2429.77L2485.67 221.846H2460.86L2447.73 184.867H2447.76ZM2440.95 164.936L2417.29 97.9222L2393.43 164.936H2440.95Z" fill="#09202E"/>
<path d="M2590.97 90.2833H2546.33V221.846H2522.67V90.2833H2478.02V68.0958H2590.94V90.2833H2590.97Z" fill="#09202E"/>
<path d="M2612.16 221.811V68.0611H2635.82V221.811H2612.16Z" fill="#09202E"/>
<path d="M2735.91 65.5958C2746.58 65.4569 2756.59 67.4014 2765.86 71.3944C2775.17 75.3875 2783.06 80.9083 2789.59 87.9569C2796.09 95.0055 2801.19 103.478 2804.88 113.304C2808.56 123.165 2810.33 133.686 2810.19 144.901C2810.33 156.186 2808.56 166.811 2804.88 176.707C2801.19 186.637 2796.09 195.075 2789.59 202.124C2783.09 209.137 2775.17 214.658 2765.86 218.651C2756.55 222.644 2746.58 224.589 2735.91 224.45C2725.25 224.589 2715.28 222.644 2706 218.651C2696.72 214.658 2688.84 209.137 2682.34 202.089C2675.84 195.04 2670.74 186.568 2667.09 176.742C2663.44 166.915 2661.67 156.36 2661.81 145.144C2661.67 133.929 2663.44 123.374 2667.09 113.512C2670.74 103.651 2675.81 95.1791 2682.34 88.0958C2688.84 81.0472 2696.72 75.4916 2706 71.4639C2715.28 67.4361 2725.25 65.4916 2735.91 65.6305V65.5958ZM2700.13 185.839C2709.2 196.117 2721.18 201.29 2736.12 201.29C2751.06 201.29 2763.05 196.151 2772.08 185.839C2781.11 175.561 2785.63 161.915 2785.63 144.901C2785.63 127.887 2781.11 114.137 2772.08 103.86C2763.05 93.5819 2751.06 88.4083 2736.12 88.4083C2721.18 88.4083 2709.16 93.5819 2700.13 103.894C2691.06 114.207 2686.55 127.887 2686.55 144.901C2686.55 161.915 2691.06 175.561 2700.13 185.839Z" fill="#09202E"/>
<path d="M2959.1 68.0611V221.811H2935.65L2859.8 105.943V221.811H2836.35V68.0611H2859.8L2935.65 184.137V68.0611H2959.1Z" fill="#09202E"/>
</svg>
