<?xml version="1.0" encoding="UTF-8"?>
<!--Generator: Apple Native CoreSVG 175.5-->
<!DOCTYPE svg
PUBLIC "-//W3C//DTD SVG 1.1//EN"
       "http://www.w3.org/Graphics/SVG/1.1/DTD/svg11.dtd">
<svg version="1.1" xmlns="http://www.w3.org/2000/svg" xmlns:xlink="http://www.w3.org/1999/xlink" width="3300" height="2200">
 <!--glyph: "", point size: 100.0, font version: "18.0d12e2", template writer version: "101"-->
 <style>.monochrome-0 {fill:#000000}

.multicolor-0:custom {fill:#24292F}

.SFSymbolsPreview24292F {fill:#24292F;opacity:1.0}
</style>
 <g id="Notes">
  <rect height="2200" id="artboard" style="fill:white;opacity:1" width="3300" x="0" y="0"/>
  <line style="fill:none;stroke:black;opacity:1;stroke-width:0.5;" x1="263" x2="3036" y1="292" y2="292"/>
  <text style="stroke:none;fill:black;font-family:sans-serif;font-size:13;font-weight:bold;" transform="matrix(1 0 0 1 263 322)">Weight/Scale Variations</text>
  <text style="stroke:none;fill:black;font-family:sans-serif;font-size:13;text-anchor:middle;" transform="matrix(1 0 0 1 559.711 322)">Ultralight</text>
  <text style="stroke:none;fill:black;font-family:sans-serif;font-size:13;text-anchor:middle;" transform="matrix(1 0 0 1 856.422 322)">Thin</text>
  <text style="stroke:none;fill:black;font-family:sans-serif;font-size:13;text-anchor:middle;" transform="matrix(1 0 0 1 1153.13 322)">Light</text>
  <text style="stroke:none;fill:black;font-family:sans-serif;font-size:13;text-anchor:middle;" transform="matrix(1 0 0 1 1449.84 322)">Regular</text>
  <text style="stroke:none;fill:black;font-family:sans-serif;font-size:13;text-anchor:middle;" transform="matrix(1 0 0 1 1746.56 322)">Medium</text>
  <text style="stroke:none;fill:black;font-family:sans-serif;font-size:13;text-anchor:middle;" transform="matrix(1 0 0 1 2043.27 322)">Semibold</text>
  <text style="stroke:none;fill:black;font-family:sans-serif;font-size:13;text-anchor:middle;" transform="matrix(1 0 0 1 2339.98 322)">Bold</text>
  <text style="stroke:none;fill:black;font-family:sans-serif;font-size:13;text-anchor:middle;" transform="matrix(1 0 0 1 2636.69 322)">Heavy</text>
  <text style="stroke:none;fill:black;font-family:sans-serif;font-size:13;text-anchor:middle;" transform="matrix(1 0 0 1 2933.4 322)">Black</text>
  <line style="fill:none;stroke:black;opacity:1;stroke-width:0.5;" x1="263" x2="3036" y1="1903" y2="1903"/>
  <g transform="matrix(1 0 0 1 263 1933)">
   <path d="M9.24805 0.830078C13.5547 0.830078 17.1387-2.74414 17.1387-7.05078C17.1387-11.3574 13.5449-14.9316 9.23828-14.9316C4.94141-14.9316 1.36719-11.3574 1.36719-7.05078C1.36719-2.74414 4.95117 0.830078 9.24805 0.830078ZM9.24805-0.654297C5.70312-0.654297 2.87109-3.49609 2.87109-7.05078C2.87109-10.6055 5.69336-13.4473 9.23828-13.4473C12.793-13.4473 15.6445-10.6055 15.6445-7.05078C15.6445-3.49609 12.8027-0.654297 9.24805-0.654297ZM5.6543-7.05078C5.6543-6.62109 5.95703-6.32812 6.40625-6.32812L8.50586-6.32812L8.50586-4.20898C8.50586-3.76953 8.79883-3.4668 9.22852-3.4668C9.67773-3.4668 9.9707-3.76953 9.9707-4.20898L9.9707-6.32812L12.0898-6.32812C12.5293-6.32812 12.832-6.62109 12.832-7.05078C12.832-7.49023 12.5293-7.79297 12.0898-7.79297L9.9707-7.79297L9.9707-9.90234C9.9707-10.3516 9.67773-10.6543 9.22852-10.6543C8.79883-10.6543 8.50586-10.3516 8.50586-9.90234L8.50586-7.79297L6.40625-7.79297C5.95703-7.79297 5.6543-7.49023 5.6543-7.05078Z"/>
  </g>
  <g transform="matrix(1 0 0 1 281.867 1933)">
   <path d="M11.709 2.91016C17.1582 2.91016 21.6699-1.61133 21.6699-7.05078C21.6699-12.5 17.1484-17.0117 11.6992-17.0117C6.25977-17.0117 1.74805-12.5 1.74805-7.05078C1.74805-1.61133 6.26953 2.91016 11.709 2.91016ZM11.709 1.25C7.09961 1.25 3.41797-2.44141 3.41797-7.05078C3.41797-11.6602 7.08984-15.3516 11.6992-15.3516C16.3086-15.3516 20.0098-11.6602 20.0098-7.05078C20.0098-2.44141 16.3184 1.25 11.709 1.25ZM7.17773-7.05078C7.17773-6.57227 7.50977-6.25 8.00781-6.25L10.8789-6.25L10.8789-3.36914C10.8789-2.88086 11.2109-2.53906 11.6895-2.53906C12.1777-2.53906 12.5195-2.87109 12.5195-3.36914L12.5195-6.25L15.4004-6.25C15.8887-6.25 16.2305-6.57227 16.2305-7.05078C16.2305-7.53906 15.8887-7.88086 15.4004-7.88086L12.5195-7.88086L12.5195-10.752C12.5195-11.25 12.1777-11.5918 11.6895-11.5918C11.2109-11.5918 10.8789-11.25 10.8789-10.752L10.8789-7.88086L8.00781-7.88086C7.50977-7.88086 7.17773-7.53906 7.17773-7.05078Z"/>
  </g>
  <g transform="matrix(1 0 0 1 305.646 1933)">
   <path d="M14.9707 5.66406C21.9336 5.66406 27.6953-0.0976562 27.6953-7.05078C27.6953-14.0137 21.9238-19.7754 14.9609-19.7754C8.00781-19.7754 2.25586-14.0137 2.25586-7.05078C2.25586-0.0976562 8.01758 5.66406 14.9707 5.66406ZM14.9707 3.84766C8.93555 3.84766 4.08203-1.01562 4.08203-7.05078C4.08203-13.0957 8.92578-17.9492 14.9609-17.9492C21.0059-17.9492 25.8691-13.0957 25.8691-7.05078C25.8691-1.01562 21.0156 3.84766 14.9707 3.84766ZM9.19922-7.05078C9.19922-6.5332 9.57031-6.17188 10.1172-6.17188L14.0625-6.17188L14.0625-2.2168C14.0625-1.67969 14.4336-1.29883 14.9512-1.29883C15.4883-1.29883 15.8594-1.66992 15.8594-2.2168L15.8594-6.17188L19.8145-6.17188C20.3516-6.17188 20.7324-6.5332 20.7324-7.05078C20.7324-7.59766 20.3613-7.96875 19.8145-7.96875L15.8594-7.96875L15.8594-11.9141C15.8594-12.4609 15.4883-12.8418 14.9512-12.8418C14.4336-12.8418 14.0625-12.4609 14.0625-11.9141L14.0625-7.96875L10.1172-7.96875C9.57031-7.96875 9.19922-7.59766 9.19922-7.05078Z"/>
  </g>
  <text style="stroke:none;fill:black;font-family:sans-serif;font-size:13;font-weight:bold;" transform="matrix(1 0 0 1 263 1953)">Design Variations</text>
  <text style="stroke:none;fill:black;font-family:sans-serif;font-size:13;" transform="matrix(1 0 0 1 263 1971)">Symbols are supported in up to nine weights and three scales.</text>
  <text style="stroke:none;fill:black;font-family:sans-serif;font-size:13;" transform="matrix(1 0 0 1 263 1989)">For optimal layout with text and other symbols, vertically align</text>
  <text style="stroke:none;fill:black;font-family:sans-serif;font-size:13;" transform="matrix(1 0 0 1 263 2007)">symbols with the adjacent text.</text>
  <line style="fill:none;stroke:#00AEEF;stroke-width:0.5;opacity:1.0;" x1="776" x2="776" y1="1919" y2="1933"/>
  <g transform="matrix(1 0 0 1 776 1933)">
   <path d="M3.31055 0.15625C3.82812 0.15625 4.08203-0.0390625 4.26758-0.585938L5.52734-4.0332L11.2891-4.0332L12.5488-0.585938C12.7344-0.0390625 12.9883 0.15625 13.4961 0.15625C14.0137 0.15625 14.3457-0.15625 14.3457-0.644531C14.3457-0.810547 14.3164-0.966797 14.2383-1.17188L9.6582-13.3691C9.43359-13.9648 9.0332-14.2676 8.4082-14.2676C7.80273-14.2676 7.39258-13.9746 7.17773-13.3789L2.59766-1.16211C2.51953-0.957031 2.49023-0.800781 2.49023-0.634766C2.49023-0.146484 2.80273 0.15625 3.31055 0.15625ZM6.00586-5.51758L8.37891-12.0898L8.42773-12.0898L10.8008-5.51758Z"/>
  </g>
  <line style="fill:none;stroke:#00AEEF;stroke-width:0.5;opacity:1.0;" x1="793.197" x2="793.197" y1="1919" y2="1933"/>
  <text style="stroke:none;fill:black;font-family:sans-serif;font-size:13;font-weight:bold;" transform="matrix(1 0 0 1 776 1953)">Margins</text>
  <text style="stroke:none;fill:black;font-family:sans-serif;font-size:13;" transform="matrix(1 0 0 1 776 1971)">Leading and trailing margins on the left and right side of each symbol</text>
  <text style="stroke:none;fill:black;font-family:sans-serif;font-size:13;" transform="matrix(1 0 0 1 776 1989)">can be adjusted by modifying the x-location of the margin guidelines.</text>
  <text style="stroke:none;fill:black;font-family:sans-serif;font-size:13;" transform="matrix(1 0 0 1 776 2007)">Modifications are automatically applied proportionally to all</text>
  <text style="stroke:none;fill:black;font-family:sans-serif;font-size:13;" transform="matrix(1 0 0 1 776 2025)">scales and weights.</text>
  <g transform="matrix(1 0 0 1 1289 1933)">
   <path d="M2.8418 1.86523L4.54102 3.57422C5.40039 4.44336 6.38672 4.38477 7.31445 3.35938L18.0078-8.42773L17.041-9.4043L6.42578 2.27539C6.07422 2.67578 5.74219 2.77344 5.27344 2.30469L4.10156 1.14258C3.63281 0.683594 3.74023 0.341797 4.14062-0.0195312L15.6152-10.8203L14.6387-11.7871L3.04688-0.898438C2.06055 0.0195312 1.98242 0.996094 2.8418 1.86523ZM9.25781-16.3281C8.83789-15.918 8.80859-15.3418 9.04297-14.9512C9.27734-14.5898 9.73633-14.3555 10.3809-14.5215C11.8457-14.8633 13.3691-14.9219 14.7949-13.9844L14.209-12.5293C13.8672-11.6992 14.043-11.1133 14.5801-10.5664L16.875-8.25195C17.3633-7.76367 17.7734-7.74414 18.3398-7.8418L19.4043-8.03711L20.0684-7.36328L20.0293-6.80664C19.9902-6.30859 20.1172-5.92773 20.6055-5.44922L21.3672-4.70703C21.8457-4.22852 22.4609-4.19922 22.9297-4.66797L25.8398-7.58789C26.3086-8.05664 26.2891-8.65234 25.8105-9.13086L25.0391-9.89258C24.5605-10.3711 24.1895-10.5273 23.7109-10.4883L23.1348-10.4395L22.4902-11.0742L22.7344-12.1973C22.8613-12.7637 22.7051-13.2031 22.1191-13.7891L19.9219-15.9766C16.582-19.2969 12.1484-19.2188 9.25781-16.3281ZM10.752-15.957C13.1836-17.7344 16.4746-17.4316 18.7012-15.2051L21.1328-12.793C21.3672-12.5586 21.4062-12.373 21.3379-12.0312L21.0156-10.5469L22.5195-9.0625L23.5059-9.12109C23.7598-9.13086 23.8379-9.11133 24.0332-8.91602L24.6094-8.33984L22.168-5.89844L21.5918-6.47461C21.3965-6.66992 21.3672-6.74805 21.377-7.01172L21.4453-7.98828L19.9512-9.47266L18.4277-9.21875C18.1055-9.15039 17.959-9.17969 17.7148-9.41406L15.7129-11.416C15.459-11.6504 15.4297-11.8164 15.5859-12.1875L16.4648-14.2773C14.9023-15.7324 12.8711-16.3574 10.8398-15.7617C10.6836-15.7227 10.625-15.8496 10.752-15.957Z"/>
  </g>
  <text style="stroke:none;fill:black;font-family:sans-serif;font-size:13;font-weight:bold;" transform="matrix(1 0 0 1 1289 1953)">Exporting</text>
  <text style="stroke:none;fill:black;font-family:sans-serif;font-size:13;" transform="matrix(1 0 0 1 1289 1971)">Symbols should be outlined when exporting to ensure the</text>
  <text style="stroke:none;fill:black;font-family:sans-serif;font-size:13;" transform="matrix(1 0 0 1 1289 1989)">design is preserved when submitting to Xcode.</text>
  <text id="template-version" style="stroke:none;fill:black;font-family:sans-serif;font-size:13;text-anchor:end;" transform="matrix(1 0 0 1 3036 1933)">Template v.4.0</text>
  <text style="stroke:none;fill:black;font-family:sans-serif;font-size:13;text-anchor:end;" transform="matrix(1 0 0 1 3036 1951)">Requires Xcode 14 or greater</text>
  <text id="descriptive-name" style="stroke:none;fill:black;font-family:sans-serif;font-size:13;text-anchor:end;" transform="matrix(1 0 0 1 3036 1969)">Generated from github.fill</text>
  <text style="stroke:none;fill:black;font-family:sans-serif;font-size:13;text-anchor:end;" transform="matrix(1 0 0 1 3036 1987)">Typeset at 100 points</text>
  <text style="stroke:none;fill:black;font-family:sans-serif;font-size:13;" transform="matrix(1 0 0 1 263 726)">Small</text>
  <text style="stroke:none;fill:black;font-family:sans-serif;font-size:13;" transform="matrix(1 0 0 1 263 1156)">Medium</text>
  <text style="stroke:none;fill:black;font-family:sans-serif;font-size:13;" transform="matrix(1 0 0 1 263 1586)">Large</text>
 </g>
 <g id="Guides">
  <g id="H-reference" style="fill:#27AAE1;stroke:none;" transform="matrix(1 0 0 1 339 696)">
   <path d="M0.993654 0L3.63775 0L29.3281-67.1323L30.0303-67.1323L30.0303-70.459L28.1226-70.459ZM11.6885-24.4799L46.9815-24.4799L46.2315-26.7285L12.4385-26.7285ZM55.1196 0L57.7637 0L30.6382-70.459L29.4326-70.459L29.4326-67.1323Z"/>
  </g>
  <line id="Baseline-S" style="fill:none;stroke:#27AAE1;opacity:1;stroke-width:0.5;" x1="263" x2="3036" y1="696" y2="696"/>
  <line id="Capline-S" style="fill:none;stroke:#27AAE1;opacity:1;stroke-width:0.5;" x1="263" x2="3036" y1="625.541" y2="625.541"/>
  <g id="H-reference" style="fill:#27AAE1;stroke:none;" transform="matrix(1 0 0 1 339 1126)">
   <path d="M0.993654 0L3.63775 0L29.3281-67.1323L30.0303-67.1323L30.0303-70.459L28.1226-70.459ZM11.6885-24.4799L46.9815-24.4799L46.2315-26.7285L12.4385-26.7285ZM55.1196 0L57.7637 0L30.6382-70.459L29.4326-70.459L29.4326-67.1323Z"/>
  </g>
  <line id="Baseline-M" style="fill:none;stroke:#27AAE1;opacity:1;stroke-width:0.5;" x1="263" x2="3036" y1="1126" y2="1126"/>
  <line id="Capline-M" style="fill:none;stroke:#27AAE1;opacity:1;stroke-width:0.5;" x1="263" x2="3036" y1="1055.54" y2="1055.54"/>
  <g id="H-reference" style="fill:#27AAE1;stroke:none;" transform="matrix(1 0 0 1 339 1556)">
   <path d="M0.993654 0L3.63775 0L29.3281-67.1323L30.0303-67.1323L30.0303-70.459L28.1226-70.459ZM11.6885-24.4799L46.9815-24.4799L46.2315-26.7285L12.4385-26.7285ZM55.1196 0L57.7637 0L30.6382-70.459L29.4326-70.459L29.4326-67.1323Z"/>
  </g>
  <line id="Baseline-L" style="fill:none;stroke:#27AAE1;opacity:1;stroke-width:0.5;" x1="263" x2="3036" y1="1556" y2="1556"/>
  <line id="Capline-L" style="fill:none;stroke:#27AAE1;opacity:1;stroke-width:0.5;" x1="263" x2="3036" y1="1485.54" y2="1485.54"/>
  <line id="left-margin-Regular-M" style="fill:none;stroke:#00AEEF;stroke-width:0.5;opacity:1.0;" x1="1391.32" x2="1391.32" y1="1030.79" y2="1150.12"/>
  <line id="right-margin-Regular-M" style="fill:none;stroke:#00AEEF;stroke-width:0.5;opacity:1.0;" x1="1508.37" x2="1508.37" y1="1030.79" y2="1150.12"/>
 </g>
 <g id="Symbols">
  <g id="Black-L" transform="matrix(1 0 0 1 2856.37 1556)">
   <path class="monochrome-0 multicolor-0:custom SFSymbolsPreview24292F" d="M76.7363-103.148C39.1029-103.148 8.68-72.669 8.68-34.9622C8.68-4.82123 28.173 20.6925 55.215 29.7226C58.5959 30.4015 59.8343 28.2555 59.8343 26.4503C59.8343 24.8695 59.7229 19.4512 59.7229 13.8056C40.7913 17.8704 36.8489 5.67741 36.8489 5.67741C33.8065-2.22497 29.2986-4.25599 29.2986-4.25599C23.1023-8.433 29.7499-8.433 29.7499-8.433C36.6233-7.98136 40.2299-1.4339 40.2299-1.4339C46.3134 8.95113 56.1163 6.01683 60.06 4.21026C60.6228-0.192576 62.4268-3.24048 64.3423-4.93345C49.243-6.51421 33.3566-12.3842 33.3566-38.5754C33.3566-46.0261 36.0591-52.1219 40.3413-56.8628C39.6657-58.5558 37.2989-65.5563 41.0184-74.9258C41.0184-74.9258 46.7647-76.7324 59.7215-67.9267C65.2688-69.4193 70.9896-70.1785 76.7363-70.1849C82.4826-70.1849 88.3404-69.3938 93.7496-67.9267C106.708-76.7324 112.454-74.9258 112.454-74.9258C116.174-65.5563 113.805-58.5558 113.13-56.8628C117.525-52.1219 120.116-46.0261 120.116-38.5754C120.116-12.3842 104.23-6.62781 89.0174-4.93345C91.4971-2.78884 93.6368 1.27457 93.6368 7.70981C93.6368 16.8535 93.5254 24.192 93.5254 26.4489C93.5254 28.2555 94.7652 30.4015 98.1447 29.724C125.187 20.6911 144.68-4.82123 144.68-34.9622C144.791-72.669 114.257-103.148 76.7363-103.148Z"/>
  </g>
  <g id="Heavy-L" transform="matrix(1 0 0 1 2560.66 1556)">
   <path class="monochrome-0 multicolor-0:custom SFSymbolsPreview24292F" d="M75.7354-102.22C38.6555-102.22 8.68-72.1993 8.68-35.0596C8.68-5.37183 27.8863 19.7582 54.5306 28.6525C57.8619 29.3212 59.0821 27.2075 59.0821 25.4294C59.0821 23.8724 58.9723 18.5356 58.9723 12.9749C40.3191 16.9786 36.4347 4.96894 36.4347 4.96894C33.437-2.81461 28.9954-4.81508 28.9954-4.81508C22.8902-8.92929 29.4401-8.92929 29.4401-8.92929C36.2123-8.48443 39.7659-2.03544 39.7659-2.03544C45.7599 8.19343 55.4187 5.30326 59.3044 3.52385C59.8589-0.812778 61.6364-3.81485 63.5237-5.48236C48.6464-7.03935 32.9937-12.8211 32.9937-38.6184C32.9937-45.9571 35.6565-51.9612 39.8757-56.6308C39.21-58.2983 36.878-65.1936 40.5428-74.4222C40.5428-74.4222 46.2046-76.2016 58.9709-67.5283C64.4366-68.9985 70.0733-69.7463 75.7354-69.7526C81.3973-69.7526 87.1689-68.9734 92.4986-67.5283C105.266-76.2016 110.928-74.4222 110.928-74.4222C114.593-65.1936 112.259-58.2983 111.594-56.6308C115.924-51.9612 118.477-45.9571 118.477-38.6184C118.477-12.8211 102.824-7.15124 87.836-5.48236C90.2792-3.37 92.3874 0.63231 92.3874 6.97077C92.3874 15.977 92.2776 23.2052 92.2776 25.428C92.2776 27.2075 93.4992 29.3212 96.8291 28.6539C123.473 19.7569 142.68-5.37183 142.68-35.0596C142.79-72.1993 112.704-102.22 75.7354-102.22Z"/>
  </g>
  <g id="Bold-L" transform="matrix(1 0 0 1 2264.95 1556)">
   <path class="monochrome-0 multicolor-0:custom SFSymbolsPreview24292F" d="M74.7346-101.052C38.2081-101.052 8.68-71.4896 8.68-34.9169C8.68-5.68243 27.5997 19.064 53.8463 27.8225C57.1278 28.4809 58.3298 26.3995 58.3298 24.6486C58.3298 23.1154 58.2216 17.86 58.2216 12.3842C39.8468 16.3268 36.0204 4.50046 36.0204 4.50046C33.0675-3.16425 28.6922-5.13418 28.6922-5.13418C22.6781-9.18557 29.1302-9.18557 29.1302-9.18557C35.8014-8.74751 39.302-2.39698 39.302-2.39698C45.2065 7.67573 54.7211 4.82968 58.5488 3.07744C59.0951-1.19298 60.846-4.14922 62.7051-5.79127C48.0499-7.32449 32.6308-13.0179 32.6308-38.4214C32.6308-45.6481 35.2538-51.5606 39.4101-56.1588C38.7544-57.8009 36.4572-64.5908 40.0672-73.6786C40.0672-73.6786 45.6446-75.4308 58.2203-66.89C63.6044-68.3377 69.1569-69.0741 74.7346-69.0803C80.3119-69.0803 85.9975-68.313 91.2476-66.89C103.825-75.4308 109.402-73.6786 109.402-73.6786C113.012-64.5908 110.714-57.8009 110.058-56.1588C114.324-51.5606 116.838-45.6481 116.838-38.4214C116.838-13.0179 101.419-7.43467 86.6546-5.79127C89.0613-3.71116 91.1381 0.230045 91.1381 6.47174C91.1381 15.3405 91.0299 22.4583 91.0299 24.6472C91.0299 26.3995 92.2333 28.4809 95.5134 27.8238C121.76 19.0626 140.68-5.68243 140.68-34.9169C140.788-71.4896 111.152-101.052 74.7346-101.052Z"/>
  </g>
  <g id="Semibold-L" transform="matrix(1 0 0 1 1969.24 1556)">
   <path class="monochrome-0 multicolor-0:custom SFSymbolsPreview24292F" d="M73.7338-100.247C37.7607-100.247 8.68-71.143 8.68-35.1373C8.68-6.35603 27.313 18.0067 53.162 26.6294C56.3937 27.2777 57.5775 25.2285 57.5775 23.5047C57.5775 21.9953 57.471 16.8214 57.471 11.4305C39.3746 15.3119 35.6062 3.66899 35.6062 3.66899C32.698-3.87689 28.389-5.81628 28.389-5.81628C22.466-9.80486 28.8204-9.80486 28.8204-9.80486C35.3905-9.37359 38.838-3.12151 38.838-3.12151C44.6531 6.79503 54.0235 3.99311 57.7933 2.26803C58.3312-1.93618 60.0556-4.84659 61.8866-6.46318C47.4534-7.97263 32.2679-13.5778 32.2679-38.5874C32.2679-45.7021 34.8512-51.5229 38.9445-56.0499C38.2987-57.6665 36.0363-64.3511 39.5917-73.298C39.5917-73.298 45.0845-75.0231 57.4697-66.6146C62.7722-68.0399 68.2406-68.7649 73.7338-68.771C79.2266-68.771 84.826-68.0156 89.9966-66.6146C102.383-75.0231 107.876-73.298 107.876-73.298C111.431-64.3511 109.168-57.6665 108.522-56.0499C112.723-51.5229 115.2-45.7021 115.2-38.5874C115.2-13.5778 100.014-8.0811 85.4731-6.46318C87.8434-4.41532 89.8887-0.535219 89.8887 5.6097C89.8887 14.3409 89.7822 21.3484 89.7822 23.5034C89.7822 25.2285 90.9673 27.2777 94.1977 26.6308C120.047 18.0054 138.68-6.35603 138.68-35.1373C138.786-71.143 109.599-100.247 73.7338-100.247Z"/>
  </g>
  <g id="Medium-L" transform="matrix(1 0 0 1 1673.03 1556)">
   <path class="monochrome-0 multicolor-0:custom SFSymbolsPreview24292F" d="M73.2334-99.637C37.537-99.637 8.68-70.7621 8.68-35.04C8.68-6.48533 27.1697 17.6856 52.8198 26.2404C56.0267 26.8835 57.2014 24.8505 57.2014 23.1403C57.2014 21.6427 57.0957 16.5096 57.0957 11.1612C39.1385 15.012 35.3991 3.46076 35.3991 3.46076C32.5132-4.02571 28.2373-5.94983 28.2373-5.94983C22.36-9.907 28.6655-9.907 28.6655-9.907C35.185-9.47913 38.606-3.27628 38.606-3.27628C44.3763 6.56218 53.6747 3.78232 57.4155 2.07082C57.9493-2.10028 59.6604-4.98777 61.4773-6.59164C47.1552-8.0892 32.0864-13.6502 32.0864-38.4629C32.0864-45.5215 34.6499-51.2965 38.7117-55.7879C38.0709-57.3917 35.8259-64.0238 39.3539-72.9002C39.3539-72.9002 44.8045-74.6117 57.0944-66.2695C62.3561-67.6835 67.7825-68.4028 73.2334-68.4088C78.684-68.4088 84.2402-67.6594 89.3711-66.2695C101.662-74.6117 107.113-72.9002 107.113-72.9002C110.641-64.0238 108.395-57.3917 107.754-55.7879C111.923-51.2965 114.38-45.5215 114.38-38.4629C114.38-13.6502 99.3116-8.19682 84.8824-6.59164C87.2344-4.5599 89.264-0.710351 89.264 5.38619C89.264 14.0486 89.1583 21.0009 89.1583 23.139C89.1583 24.8505 90.3343 26.8835 93.5399 26.2417C119.19 17.6843 137.68-6.48533 137.68-35.04C137.785-70.7621 108.823-99.637 73.2334-99.637Z"/>
  </g>
  <g id="Regular-L" transform="matrix(1 0 0 1 1377.32 1556)">
   <path class="monochrome-0 multicolor-0:custom SFSymbolsPreview24292F" d="M72.2325-98.8411C37.0896-98.8411 8.68-70.4246 8.68-35.2694C8.68-7.16803 26.883 16.6192 52.1355 25.0383C55.2927 25.6712 56.4491 23.6704 56.4491 21.9874C56.4491 20.5136 56.3451 15.4619 56.3451 10.1984C38.6663 13.9881 34.9848 2.62018 34.9848 2.62018C32.1437-4.74745 27.9341-6.64103 27.9341-6.64103C22.1479-10.5354 28.3556-10.5354 28.3556-10.5354C34.7741-10.1143 38.142-4.00991 38.142-4.00991C43.8229 5.67238 52.9771 2.93664 56.6599 1.25231C57.1854-2.85258 58.87-5.69424 60.6587-7.27265C46.5586-8.74644 31.7236-14.2192 31.7236-38.6381C31.7236-45.5846 34.2472-51.2679 38.2461-55.688C37.6152-57.2664 35.405-63.7932 38.8783-72.5287C38.8783-72.5287 44.2444-74.213 56.3438-66.0032C61.5239-67.3948 66.8661-68.1026 72.2325-68.1086C77.5986-68.1086 83.0688-67.3711 88.12-66.0032C100.221-74.213 105.587-72.5287 105.587-72.5287C109.06-63.7932 106.849-57.2664 106.218-55.688C110.322-51.2679 112.742-45.5846 112.742-38.6381C112.742-14.2192 97.9064-8.85235 83.701-7.27265C86.0165-5.27316 88.0147-1.48472 88.0147 4.51505C88.0147 13.04 87.9106 19.8819 87.9106 21.9861C87.9106 23.6704 89.0684 25.6712 92.2243 25.0395C117.477 16.6179 135.68-7.16803 135.68-35.2694C135.784-70.4246 107.27-98.8411 72.2325-98.8411Z"/>
  </g>
  <g id="Light-L" transform="matrix(1 0 0 1 1081.61 1556)">
   <path class="monochrome-0 multicolor-0:custom SFSymbolsPreview24292F" d="M71.2317-97.925C36.6422-97.925 8.68-69.9668 8.68-35.3787C8.68-7.73052 26.5964 15.673 51.4511 23.9563C54.5586 24.579 55.6969 22.6105 55.6969 20.9546C55.6969 19.5046 55.5944 14.5344 55.5944 9.35576C38.1941 13.0844 34.5706 1.89981 34.5706 1.89981C31.7742-5.34899 27.6309-7.21203 27.6309-7.21203C21.9358-11.0436 28.0458-11.0436 28.0458-11.0436C34.3632-10.6293 37.6781-4.62335 37.6781-4.62335C43.2695 4.90278 52.2795 2.21116 55.9043 0.554005C56.4216-3.48469 58.0796-6.28051 59.8402-7.83346C45.9621-9.28347 31.3607-14.668 31.3607-38.693C31.3607-45.5275 33.8446-51.1191 37.7805-55.4679C37.1595-57.0209 34.9841-63.4424 38.4028-72.037C38.4028-72.037 43.6843-73.6941 55.5931-65.6167C60.6917-66.9858 65.9498-67.6823 71.2317-67.6882C76.5133-67.6882 81.8973-66.9625 86.869-65.6167C98.7791-73.6941 104.061-72.037 104.061-72.037C107.479-63.4424 105.303-57.0209 104.682-55.4679C108.721-51.1191 111.103-45.5275 111.103-38.693C111.103-14.668 96.5013-9.38768 82.5196-7.83346C84.7986-5.86622 86.7653-2.13888 86.7653 3.76412C86.7653 12.1516 86.6629 18.8832 86.6629 20.9533C86.6629 22.6105 87.8024 24.579 90.9086 23.9576C115.763 15.6718 133.68-7.73052 133.68-35.3787C133.782-69.9668 105.717-97.925 71.2317-97.925Z"/>
  </g>
  <g id="Thin-L" transform="matrix(1 0 0 1 785.897 1556)">
   <path class="monochrome-0 multicolor-0:custom SFSymbolsPreview24292F" d="M70.2309-96.7134C36.1948-96.7134 8.68-69.2135 8.68-35.1924C8.68-7.99752 26.3097 15.0224 50.7668 23.1698C53.8245 23.7823 54.9446 21.8461 54.9446 20.2174C54.9446 18.7911 54.8438 13.9024 54.8438 8.80866C37.7218 12.4761 34.1563 1.47494 34.1563 1.47494C31.4047-5.65503 27.3277-7.48752 27.3277-7.48752C21.7237-11.2563 27.7359-11.2563 27.7359-11.2563C33.9522-10.8488 37.2141-4.94128 37.2141-4.94128C42.7161 4.42868 51.5819 1.78119 55.1487 0.151195C55.6577-3.82129 57.2893-6.57128 59.0216-8.09877C45.3656-9.52501 30.9978-14.8212 30.9978-38.4524C30.9978-45.1749 33.442-50.6748 37.3149-54.9523C36.7038-56.4798 34.5633-62.796 37.9272-71.2498C37.9272-71.2498 43.1243-72.8797 54.8425-64.9348C59.8595-66.2814 65.0335-66.9665 70.2309-66.9723C75.428-66.9723 80.7258-66.2585 85.618-64.9348C97.3375-72.8797 102.535-71.2498 102.535-71.2498C105.899-62.796 103.757-56.4798 103.146-54.9523C107.121-50.6748 109.464-45.1749 109.464-38.4524C109.464-14.8212 95.0962-9.62751 81.3381-8.09877C83.5807-6.16378 85.5159-2.49754 85.5159 3.30868C85.5159 11.5586 85.4151 18.1799 85.4151 20.2161C85.4151 21.8461 86.5364 23.7823 89.5929 23.1711C114.05 15.0211 131.68-7.99752 131.68-35.1924C131.781-69.2135 104.165-96.7134 70.2309-96.7134Z"/>
  </g>
  <g id="Ultralight-L" transform="matrix(1 0 0 1 489.686 1556)">
   <path class="monochrome-0 multicolor-0:custom SFSymbolsPreview24292F" d="M69.7305-96.0928C35.9711-96.0928 8.68-68.8221 8.68-35.0845C8.68-8.11622 26.1664 14.7119 50.4246 22.7914C53.4575 23.3988 54.5685 21.4787 54.5685 19.8635C54.5685 18.4492 54.4685 13.6012 54.4685 8.54991C37.4857 12.1868 33.9492 1.2773 33.9492 1.2773C31.22-5.79325 27.1761-7.61047 27.1761-7.61047C21.6176-11.3478 27.581-11.3478 27.581-11.3478C33.7468-10.9437 36.9821-5.08545 36.9821-5.08545C42.4393 4.20643 51.2331 1.581 54.7709-0.03541C55.2758-3.97479 56.8941-6.70186 58.6123-8.21663C45.0674-9.63098 30.8163-14.8831 30.8163-38.3173C30.8163-44.9838 33.2407-50.4379 37.0821-54.6797C36.476-56.1945 34.3528-62.4581 37.6894-70.8414C37.6894-70.8414 42.8442-72.4578 54.4672-64.579C59.4435-65.9144 64.5754-66.5938 69.7305-66.5995C74.8853-66.5995 80.1401-65.8917 84.9925-64.579C96.6167-72.4578 101.772-70.8414 101.772-70.8414C105.108-62.4581 102.984-56.1945 102.378-54.6797C106.32-50.4379 108.645-44.9838 108.645-38.3173C108.645-14.8831 94.3936-9.73263 80.7474-8.21663C82.9718-6.29776 84.8912-2.66208 84.8912 3.09576C84.8912 11.277 84.7913 17.843 84.7913 19.8623C84.7913 21.4787 85.9035 23.3988 88.9351 22.7927C113.193 14.7106 130.68-8.11622 130.68-35.0845C130.78-68.8221 103.389-96.0928 69.7305-96.0928Z"/>
  </g>
  <g id="Black-M" transform="matrix(1 0 0 1 2871.37 1126)">
   <path class="monochrome-0 multicolor-0:custom SFSymbolsPreview24292F" d="M61.7239-88.5231C32.392-88.5231 8.68-64.6899 8.68-35.2049C8.68-11.636 23.8731 8.31458 44.9499 15.3757C47.5851 15.9065 48.5503 14.2285 48.5503 12.8169C48.5503 11.5808 48.4634 7.34392 48.4634 2.92935C33.7079 6.10784 30.6352-3.42654 30.6352-3.42654C28.2639-9.60585 24.7504-11.194 24.7504-11.194C19.9209-14.4602 25.1022-14.4602 25.1022-14.4602C30.4593-14.1071 33.2704-8.98727 33.2704-8.98727C38.0119-0.866633 45.6524-3.16112 48.7262-4.57378C49.1648-8.0166 50.5709-10.3999 52.0638-11.7238C40.2952-12.9598 27.9132-17.5499 27.9132-38.0302C27.9132-43.8564 30.0196-48.623 33.3572-52.3302C32.8306-53.654 30.9859-59.1281 33.8849-66.4546C33.8849-66.4546 38.3637-67.8673 48.4623-60.9816C52.786-62.1487 57.2448-62.7425 61.7239-62.7475C66.2026-62.7475 70.7683-62.1289 74.9843-60.9816C85.084-67.8673 89.5628-66.4546 89.5628-66.4546C92.4618-59.1281 90.616-53.654 90.0894-52.3302C93.515-48.623 95.5345-43.8564 95.5345-38.0302C95.5345-17.5499 83.1525-13.0487 71.2959-11.7238C73.2286-10.0468 74.8963-6.86936 74.8963-1.8373C74.8963 5.31267 74.8095 11.0511 74.8095 12.8158C74.8095 14.2285 75.7758 15.9065 78.4099 15.3768C99.4867 8.3135 114.68-11.636 114.68-35.2049C114.767-64.6899 90.9678-88.5231 61.7239-88.5231Z"/>
  </g>
  <g id="Heavy-M" transform="matrix(1 0 0 1 2575.16 1126)">
   <path class="monochrome-0 multicolor-0:custom SFSymbolsPreview24292F" d="M61.2234-87.6997C32.1683-87.6997 8.68-64.0956 8.68-34.8942C8.68-11.5519 23.7297 8.20685 44.6077 15.2001C47.218 15.7258 48.1742 14.0639 48.1742 12.6659C48.1742 11.4417 48.0881 7.24552 48.0881 2.8734C33.4718 6.02132 30.4281-3.42138 30.4281-3.42138C28.0791-9.54127 24.5988-11.1142 24.5988-11.1142C19.8149-14.349 24.9472-14.349 24.9472-14.349C30.2539-13.9992 33.0384-8.92863 33.0384-8.92863C37.7352-0.886084 45.3036-3.15851 48.3484-4.55759C48.7829-7.9673 50.1757-10.3277 51.6545-11.6388C39.997-12.863 27.7318-17.4089 27.7318-37.6923C27.7318-43.4625 29.8183-48.1833 33.1244-51.8548C32.6028-53.1659 30.7755-58.5873 33.6471-65.8434C33.6471-65.8434 38.0836-67.2425 48.087-60.4231C52.3699-61.5789 56.7867-62.1669 61.2234-62.1719C65.66-62.1719 70.1825-61.5593 74.3588-60.4231C84.3632-67.2425 88.7998-65.8434 88.7998-65.8434C91.6714-58.5873 89.843-53.1659 89.3214-51.8548C92.7147-48.1833 94.7151-43.4625 94.7151-37.6923C94.7151-17.4089 82.4499-12.951 70.7052-11.6388C72.6196-9.97794 74.2716-6.83109 74.2716-1.84741C74.2716 5.23381 74.1856 10.917 74.1856 12.6648C74.1856 14.0639 75.1428 15.7258 77.752 15.2012C98.63 8.20577 113.68-11.5519 113.68-34.8942C113.766-64.0956 90.1915-87.6997 61.2234-87.6997Z"/>
  </g>
  <g id="Bold-M" transform="matrix(1 0 0 1 2279.45 1126)">
   <path class="monochrome-0 multicolor-0:custom SFSymbolsPreview24292F" d="M60.2226-86.7786C31.7209-86.7786 8.68-63.6329 8.68-34.9984C8.68-12.1094 23.4431 7.26568 43.9234 14.1231C46.484 14.6387 47.4219 13.009 47.4219 11.6381C47.4219 10.4377 47.3375 6.32302 47.3375 2.0358C32.9996 5.1226 30.0138-4.13675 30.0138-4.13675C27.7096-10.1378 24.2956-11.6802 24.2956-11.6802C19.6028-14.8522 24.6374-14.8522 24.6374-14.8522C29.8429-14.5092 32.5744-9.53707 32.5744-9.53707C37.1817-1.65069 44.606-3.87899 47.5928-5.2509C48.019-8.59441 49.3853-10.909 50.836-12.1946C39.4005-13.395 27.3689-17.8527 27.3689-37.7423C27.3689-43.4003 29.4156-48.0295 32.6588-51.6297C32.1471-52.9153 30.3546-58.2315 33.1716-65.3467C33.1716-65.3467 37.5236-66.7186 47.3364-60.0316C51.5377-61.165 55.8703-61.7416 60.2226-61.7465C64.5746-61.7465 69.011-61.1457 73.1077-60.0316C82.9217-66.7186 87.2737-65.3467 87.2737-65.3467C90.0906-58.2315 88.2971-52.9153 87.7854-51.6297C91.114-48.0295 93.0764-43.4003 93.0764-37.7423C93.0764-17.8527 81.0448-13.4813 69.5238-12.1946C71.4018-10.566 73.0223-7.48025 73.0223-2.59335C73.0223 4.35037 72.9379 9.92324 72.9379 11.6371C72.9379 13.009 73.8769 14.6387 76.4364 14.1242C96.9167 7.26463 111.68-12.1094 111.68-34.9984C111.764-63.6329 88.6389-86.7786 60.2226-86.7786Z"/>
  </g>
  <g id="Semibold-M" transform="matrix(1 0 0 1 1983.24 1126)">
   <path class="monochrome-0 multicolor-0:custom SFSymbolsPreview24292F" d="M59.7222-86.1436C31.4972-86.1436 8.68-63.227 8.68-34.8761C8.68-12.2137 23.2998 6.96955 43.5812 13.7591C46.1169 14.2695 47.0458 12.656 47.0458 11.2987C47.0458 10.1102 46.9622 6.03622 46.9622 1.79145C32.7635 4.84769 29.8067-4.31998 29.8067-4.31998C27.5249-10.2616 24.1439-11.7887 24.1439-11.7887C19.4967-14.9293 24.4825-14.9293 24.4825-14.9293C29.6375-14.5897 32.3424-9.66684 32.3424-9.66684C36.905-1.85854 44.2572-4.06478 47.215-5.4231C47.6371-8.73351 48.9901-11.0252 50.4267-12.2981C39.1022-13.4866 27.1874-17.9001 27.1874-37.5928C27.1874-43.1948 29.2143-47.7781 32.426-51.3427C31.9193-52.6156 30.1442-57.8791 32.9338-64.9239C32.9338-64.9239 37.2435-66.2822 46.9611-59.6614C51.1216-60.7836 55.4122-61.3545 59.7222-61.3593C64.032-61.3593 68.4253-60.7645 72.4822-59.6614C82.2009-66.2822 86.5106-64.9239 86.5106-64.9239C89.3002-57.8791 87.5241-52.6156 87.0174-51.3427C90.3137-47.7781 92.257-43.1948 92.257-37.5928C92.257-17.9001 80.3422-13.572 68.9331-12.2981C70.7928-10.6856 72.3976-7.63039 72.3976-2.79187C72.3976 4.08311 72.314 9.60079 72.314 11.2977C72.314 12.656 73.2439 14.2695 75.7785 13.7601C96.06 6.96851 110.68-12.2137 110.68-34.8761C110.763-63.227 87.8626-86.1436 59.7222-86.1436Z"/>
  </g>
  <g id="Medium-M" transform="matrix(1 0 0 1 1687.03 1126)">
   <path class="monochrome-0 multicolor-0:custom SFSymbolsPreview24292F" d="M59.2218-85.6621C31.2735-85.6621 8.68-62.9747 8.68-34.9073C8.68-12.4715 23.1564 6.51992 43.2391 13.2416C45.7499 13.7469 46.6696 12.1495 46.6696 10.8058C46.6696 9.62913 46.5869 5.59592 46.5869 1.3936C32.5274 4.41927 29.5996-4.65672 29.5996-4.65672C27.3401-10.5389 23.9923-12.0508 23.9923-12.0508C19.3907-15.16 24.3275-15.16 24.3275-15.16C29.432-14.8238 32.1104-9.9501 32.1104-9.9501C36.6283-2.21989 43.9084-4.40406 46.8372-5.74881C47.2552-9.02611 48.5949-11.2948 50.0174-12.555C38.804-13.7317 27.006-18.1011 27.006-37.5968C27.006-43.1428 29.013-47.6803 32.1932-51.2092C31.6914-52.4694 29.9337-57.6803 32.696-64.6546C32.696-64.6546 36.9635-65.9993 46.5858-59.4447C50.7055-60.5557 54.954-61.1209 59.2218-61.1257C63.4893-61.1257 67.8396-60.5368 71.8567-59.4447C81.4801-65.9993 85.7476-64.6546 85.7476-64.6546C88.5098-57.6803 86.7511-52.4694 86.2493-51.2092C89.5133-47.6803 91.4376-43.1428 91.4376-37.5968C91.4376-18.1011 79.6396-13.8162 68.3424-12.555C70.1839-10.9587 71.7729-7.93402 71.7729-3.14388C71.7729 3.66234 71.6902 9.12485 71.6902 10.8047C71.6902 12.1495 72.6109 13.7469 75.1207 13.2426C95.2034 6.51889 109.68-12.4715 109.68-34.9073C109.763-62.9747 87.0863-85.6621 59.2218-85.6621Z"/>
  </g>
  <g id="Regular-M" transform="matrix(1 0 0 1 1391.32 1126)">
   <path class="monochrome-0 multicolor-0:custom SFSymbolsPreview24292F" d="M58.221-84C30.8261-84 8.68-61.7709 8.68-34.2705C8.68-12.288 22.8698 6.31976 42.5547 12.9056C45.0159 13.4007 45.9174 11.8356 45.9174 10.519C45.9174 9.36615 45.8362 5.41443 45.8362 1.297C32.0551 4.26155 29.1853-4.63109 29.1853-4.63109C26.9706-10.3945 23.6891-11.8757 23.6891-11.8757C19.1786-14.9221 24.0177-14.9221 24.0177-14.9221C29.0211-14.5927 31.6465-9.81754 31.6465-9.81754C36.0749-2.24349 43.2108-4.38354 46.0816-5.70112C46.4913-8.91221 47.8045-11.1351 49.1989-12.3698C38.2074-13.5227 26.6431-17.8038 26.6431-36.9057C26.6431-42.3397 28.6104-46.7855 31.7276-50.2431C31.2358-51.4779 29.5129-56.5835 32.2204-63.4169C32.2204-63.4169 36.4034-64.7345 45.8352-58.3123C49.8733-59.4008 54.0377-59.9546 58.221-59.9593C62.404-59.9593 66.6681-59.3823 70.6057-58.3123C80.0385-64.7345 84.2215-63.4169 84.2215-63.4169C86.929-56.5835 85.2051-51.4779 84.7133-50.2431C87.9127-46.7855 89.7988-42.3397 89.7988-36.9057C89.7988-17.8038 78.2345-13.6056 67.1609-12.3698C68.966-10.8057 70.5236-7.84218 70.5236-3.14882C70.5236 3.5199 70.4424 8.87206 70.4424 10.518C70.4424 11.8356 71.3449 13.4007 73.8051 12.9066C93.49 6.31875 107.68-12.288 107.68-34.2705C107.761-61.7709 85.5337-84 58.221-84Z"/>
  </g>
  <g id="Light-M" transform="matrix(1 0 0 1 1095.11 1126)">
   <path class="monochrome-0 multicolor-0:custom SFSymbolsPreview24292F" d="M57.7205-84.2128C30.6024-84.2128 8.68-62.2129 8.68-34.996C8.68-13.2401 22.7264 5.17583 42.2126 11.6938C44.6488 12.1838 45.5412 10.6348 45.5412 9.33181C45.5412 8.19081 45.4609 4.27983 45.4609 0.204847C31.819 3.13883 28.9782-5.66213 28.9782-5.66213C26.7859-11.3661 23.5375-12.8321 23.5375-12.8321C19.0725-15.8471 23.8628-15.8471 23.8628-15.8471C28.8156-15.5211 31.4145-10.7951 31.4145-10.7951C35.7982-3.29914 42.862-5.41713 45.7038-6.72112C46.1094-9.89911 47.4093-12.0991 48.7896-13.3211C37.9092-14.4621 26.4616-18.6991 26.4616-37.604C26.4616-42.982 28.409-47.382 31.4948-50.8039C31.0079-52.0259 29.3024-57.0789 31.9826-63.8419C31.9826-63.8419 36.1234-65.1459 45.4599-58.7899C49.4572-59.8672 53.5795-60.4153 57.7205-60.4199C61.8613-60.4199 66.0824-59.8489 69.9802-58.7899C79.3177-65.1459 83.4584-63.8419 83.4584-63.8419C86.1386-57.0789 84.4322-52.0259 83.9453-50.8039C87.1123-47.382 88.9795-42.982 88.9795-37.604C88.9795-18.6991 77.5319-14.5441 66.5702-13.3211C68.357-11.7731 69.8989-8.84012 69.8989-4.19513C69.8989 2.40484 69.8186 7.70182 69.8186 9.33081C69.8186 10.6348 70.712 12.1838 73.1472 11.6948C92.6333 5.17483 106.68-13.2401 106.68-34.996C106.76-62.2129 84.7574-84.2128 57.7205-84.2128Z"/>
  </g>
  <g id="Thin-M" transform="matrix(1 0 0 1 799.397 1126)">
   <path class="monochrome-0 multicolor-0:custom SFSymbolsPreview24292F" d="M56.7197-83.1265C30.155-83.1265 8.68-61.5849 8.68-34.9351C8.68-13.6324 22.4398 4.39986 41.5282 10.782C43.9148 11.2618 44.7889 9.74511 44.7889 8.46926C44.7889 7.35204 44.7103 3.52253 44.7103-0.467554C31.3468 2.40531 28.564-6.2123 28.564-6.2123C26.4164-11.7974 23.2343-13.2329 23.2343-13.2329C18.8604-16.1851 23.5529-16.1851 23.5529-16.1851C28.4047-15.8659 30.9505-11.2383 30.9505-11.2383C35.2447-3.89854 42.1644-5.97241 44.9482-7.24923C45.3455-10.361 46.6189-12.5152 47.971-13.7117C37.3127-14.8289 26.0987-18.9776 26.0987-37.4887C26.0987-42.7546 28.0064-47.063 31.0292-50.4137C30.5523-51.6102 28.8816-56.5579 31.5071-63.18C31.5071-63.18 35.5633-64.4568 44.7093-58.2332C48.625-59.2881 52.6632-59.8248 56.7197-59.8293C60.776-59.8293 64.9109-59.2702 68.7292-58.2332C77.8761-64.4568 81.9324-63.18 81.9324-63.18C84.5579-56.5579 82.8862-51.6102 82.4093-50.4137C85.5117-47.063 87.3407-42.7546 87.3407-37.4887C87.3407-18.9776 76.1268-14.9092 65.3888-13.7117C67.1391-12.196 68.6495-9.32408 68.6495-4.77587C68.6495 1.6866 68.5708 6.87323 68.5708 8.46828C68.5708 9.74511 69.446 11.2618 71.8316 10.783C90.92 4.39888 104.68-13.6324 104.68-34.9351C104.758-61.5849 83.2048-83.1265 56.7197-83.1265Z"/>
  </g>
  <g id="Ultralight-M" transform="matrix(1 0 0 1 503.186 1126)">
   <path class="monochrome-0 multicolor-0:custom SFSymbolsPreview24292F" d="M56.2193-82.5701C29.9313-82.5701 8.68-61.2577 8.68-34.8913C8.68-13.8153 22.2964 4.02513 41.186 10.3394C43.5477 10.8141 44.4128 9.31352 44.4128 8.05124C44.4128 6.9459 44.335 3.15714 44.335-0.790504C31.1107 2.0518 28.3568-6.47414 28.3568-6.47414C26.2316-11.9999 23.0827-13.42 23.0827-13.42C18.7544-16.3408 23.398-16.3408 23.398-16.3408C28.1992-16.025 30.7185-11.4467 30.7185-11.4467C34.968-4.18499 41.8156-6.23679 44.5705-7.50004C44.9636-10.5787 46.2237-12.71 47.5617-13.8938C37.0144-14.9991 25.9173-19.1037 25.9173-37.4178C25.9173-42.6277 27.8051-46.8902 30.7964-50.2053C30.3244-51.3891 28.6711-56.2841 31.2693-62.8358C31.2693-62.8358 35.2833-64.099 44.334-57.9417C48.2089-58.9853 52.2051-59.5163 56.2193-59.5207C60.2333-59.5207 64.3251-58.9676 68.1036-57.9417C77.1553-64.099 81.1693-62.8358 81.1693-62.8358C83.7675-56.2841 82.1132-51.3891 81.6413-50.2053C84.7114-46.8902 86.5213-42.6277 86.5213-37.4178C86.5213-19.1037 75.4242-15.0785 64.7981-13.8938C66.5302-12.3941 68.0248-9.55281 68.0248-5.05299C68.0248 1.34074 67.947 6.47218 67.947 8.05027C67.947 9.31352 68.813 10.8141 71.1737 10.3404C90.0633 4.02416 103.68-13.8153 103.68-34.8913C103.758-61.2577 82.4285-82.5701 56.2193-82.5701Z"/>
  </g>
  <g id="Black-S" transform="matrix(1 0 0 1 2882.38 696)">
   <path class="monochrome-0 multicolor-0:custom SFSymbolsPreview24292F" d="M50.7148-77.1973C27.4706-77.1973 8.68-58.1765 8.68-34.6453C8.68-15.8355 20.7198 0.0866164 37.4222 5.72195C39.5104 6.14559 40.2753 4.80636 40.2753 3.67981C40.2753 2.69332 40.2065-0.688047 40.2065-4.21121C28.5134-1.67453 26.0785-9.2837 26.0785-9.2837C24.1993-14.2153 21.415-15.4827 21.415-15.4827C17.5879-18.0894 21.6938-18.0894 21.6938-18.0894C25.9391-17.8076 28.1667-13.7216 28.1667-13.7216C31.9241-7.2407 37.9789-9.07188 40.4147-10.1993C40.7623-12.9469 41.8766-14.849 43.0596-15.9055C33.7336-16.892 23.9214-20.5552 23.9214-36.9001C23.9214-41.5498 25.5906-45.354 28.2355-48.3126C27.8182-49.3691 26.3564-53.7378 28.6537-59.5849C28.6537-59.5849 32.2029-60.7124 40.2056-55.2171C43.6319-56.1485 47.1653-56.6224 50.7148-56.6264C54.264-56.6264 57.882-56.1327 61.223-55.2171C69.2266-60.7124 72.7758-59.5849 72.7758-59.5849C75.0731-53.7378 73.6104-49.3691 73.1931-48.3126C75.9077-45.354 77.5081-41.5498 77.5081-36.9001C77.5081-20.5552 67.6959-16.9629 58.3002-15.9055C59.8317-14.5671 61.1533-12.0313 61.1533-8.01536C61.1533-2.30913 61.0845 2.27054 61.0845 3.67895C61.0845 4.80636 61.8503 6.14559 63.9376 5.72281C80.64 0.0857518 92.68-15.8355 92.68-34.6453C92.7486-58.1765 73.8892-77.1973 50.7148-77.1973Z"/>
  </g>
  <g id="Heavy-S" transform="matrix(1 0 0 1 2586.16 696)">
   <path class="monochrome-0 multicolor-0:custom SFSymbolsPreview24292F" d="M50.2143-76.598C27.2469-76.598 8.68-57.8064 8.68-34.5587C8.68-15.9755 20.5765-0.245215 37.08 5.32222C39.1434 5.74076 39.8992 4.41766 39.8992 3.30469C39.8992 2.33009 39.8312-1.01055 39.8312-4.49126C28.2773-1.98515 25.8713-9.50263 25.8713-9.50263C24.0146-14.3748 21.2634-15.627 21.2634-15.627C17.4818-18.2023 21.5389-18.2023 21.5389-18.2023C25.7336-17.9238 27.9347-13.8871 27.9347-13.8871C31.6474-7.48425 37.6301-9.29336 40.0369-10.4072C40.3804-13.1217 41.4814-15.0009 42.6504-16.0447C33.4353-17.0193 23.74-20.6384 23.74-36.7863C23.74-41.38 25.3893-45.1383 28.0027-48.0613C27.5904-49.1051 26.1459-53.4211 28.4159-59.1978C28.4159-59.1978 31.9229-60.3117 39.8303-54.8826C43.2158-55.8028 46.7072-56.271 50.2143-56.2749C53.7213-56.2749 57.2963-55.7872 60.5975-54.8826C68.5058-60.3117 72.0128-59.1978 72.0128-59.1978C74.2827-53.4211 72.8374-49.1051 72.4251-48.0613C75.1074-45.1383 76.6887-41.38 76.6887-36.7863C76.6887-20.6384 66.9933-17.0893 57.7095-16.0447C59.2228-14.7224 60.5286-12.2172 60.5286-8.24958C60.5286-2.6121 60.4606 1.9124 60.4606 3.30383C60.4606 4.41766 61.2173 5.74076 63.2798 5.32307C79.7833-0.246069 91.68-15.9755 91.68-34.5587C91.7478-57.8064 73.1129-76.598 50.2143-76.598Z"/>
  </g>
  <g id="Bold-S" transform="matrix(1 0 0 1 2290.45 696)">
   <path class="monochrome-0 multicolor-0:custom SFSymbolsPreview24292F" d="M49.2135-75.9277C26.7995-75.9277 8.68-57.5944 8.68-34.9137C8.68-16.7838 20.2898-1.43718 36.3957 3.99447C38.4093 4.4028 39.1469 3.11197 39.1469 2.02614C39.1469 1.07531 39.0805-2.18384 39.0805-5.57966C27.8051-3.13467 25.4571-10.4688 25.4571-10.4688C23.6451-15.2221 20.9602-16.4438 20.9602-16.4438C17.2697-18.9563 21.229-18.9563 21.229-18.9563C25.3227-18.6846 27.4707-14.7463 27.4707-14.7463C31.094-8.49965 36.9325-10.2646 39.2813-11.3513C39.6165-13.9996 40.691-15.833 41.8318-16.8513C32.8388-17.8021 23.3771-21.3329 23.3771-37.087C23.3771-41.5687 24.9867-45.2353 27.5371-48.087C27.1347-49.1053 25.7251-53.3161 27.9403-58.9519C27.9403-58.9519 31.3628-60.0386 39.0797-54.742C42.3836-55.6397 45.7908-56.0964 49.2135-56.1003C52.636-56.1003 56.1248-55.6245 59.3465-54.742C67.0642-60.0386 70.4867-58.9519 70.4867-58.9519C72.7019-53.3161 71.2915-49.1053 70.8891-48.087C73.5067-45.2353 75.05-41.5687 75.05-37.087C75.05-21.3329 65.5882-17.8704 56.528-16.8513C58.0049-15.5613 59.2793-13.1171 59.2793-9.24631C59.2793-3.74634 59.2129 0.667813 59.2129 2.02531C59.2129 3.11197 59.9513 4.4028 61.9641 3.9953C78.07-1.43801 89.68-16.7838 89.68-34.9137C89.7462-57.5944 71.5603-75.9277 49.2135-75.9277Z"/>
  </g>
  <g id="Semibold-S" transform="matrix(1 0 0 1 1994.24 696)">
   <path class="monochrome-0 multicolor-0:custom SFSymbolsPreview24292F" d="M48.7131-75.1152C26.5758-75.1152 8.68-57.0111 8.68-34.6139C8.68-16.7106 20.1465-1.55581 36.0535 3.80794C38.0423 4.21117 38.7708 2.93647 38.7708 1.86422C38.7708 0.925274 38.7052-2.29314 38.7052-5.64651C27.569-3.23208 25.25-10.4745 25.25-10.4745C23.4603-15.1684 20.8086-16.3748 20.8086-16.3748C17.1637-18.8559 21.0741-18.8559 21.0741-18.8559C25.1172-18.5876 27.2388-14.6986 27.2388-14.6986C30.8173-8.53 36.5837-10.2729 38.9035-11.346C39.2346-13.9612 40.2958-15.7716 41.4225-16.7772C32.5406-17.7162 23.1956-21.2029 23.1956-36.76C23.1956-41.1857 24.7853-44.8065 27.3043-47.6225C26.9069-48.6281 25.5146-52.7863 27.7026-58.3516C27.7026-58.3516 31.0828-59.4247 38.7044-54.1943C41.9675-55.0808 45.3327-55.5318 48.7131-55.5356C52.0933-55.5356 55.5391-55.0657 58.721-54.1943C66.3434-59.4247 69.7236-58.3516 69.7236-58.3516C71.9115-52.7863 70.5185-48.6281 70.1211-47.6225C72.7064-44.8065 74.2306-41.1857 74.2306-36.76C74.2306-21.2029 64.8856-17.7837 55.9373-16.7772C57.3959-15.5034 58.6546-13.0898 58.6546-9.26733C58.6546-3.8361 58.589 0.522869 58.589 1.86339C58.589 2.93647 59.3183 4.21117 61.3063 3.80876C77.2133-1.55663 88.68-16.7106 88.68-34.6139C88.7454-57.0111 70.784-75.1152 48.7131-75.1152Z"/>
  </g>
  <g id="Medium-S" transform="matrix(1 0 0 1 1697.53 696)">
   <path class="monochrome-0 multicolor-0:custom SFSymbolsPreview24292F" d="M48.7131-75.1152C26.5758-75.1152 8.68-57.0111 8.68-34.6139C8.68-16.7106 20.1465-1.55581 36.0535 3.80794C38.0423 4.21117 38.7708 2.93647 38.7708 1.86422C38.7708 0.925274 38.7052-2.29314 38.7052-5.64651C27.569-3.23208 25.25-10.4745 25.25-10.4745C23.4603-15.1684 20.8086-16.3748 20.8086-16.3748C17.1637-18.8559 21.0741-18.8559 21.0741-18.8559C25.1172-18.5876 27.2388-14.6986 27.2388-14.6986C30.8173-8.53 36.5837-10.2729 38.9035-11.346C39.2346-13.9612 40.2958-15.7716 41.4225-16.7772C32.5406-17.7162 23.1956-21.2029 23.1956-36.76C23.1956-41.1857 24.7853-44.8065 27.3043-47.6225C26.9069-48.6281 25.5146-52.7863 27.7026-58.3516C27.7026-58.3516 31.0828-59.4247 38.7044-54.1943C41.9675-55.0808 45.3327-55.5318 48.7131-55.5356C52.0933-55.5356 55.5391-55.0657 58.721-54.1943C66.3434-59.4247 69.7236-58.3516 69.7236-58.3516C71.9115-52.7863 70.5185-48.6281 70.1211-47.6225C72.7064-44.8065 74.2306-41.1857 74.2306-36.76C74.2306-21.2029 64.8856-17.7837 55.9373-16.7772C57.3959-15.5034 58.6546-13.0898 58.6546-9.26733C58.6546-3.8361 58.589 0.522869 58.589 1.86339C58.589 2.93647 59.3183 4.21117 61.3063 3.80876C77.2133-1.55663 88.68-16.7106 88.68-34.6139C88.7454-57.0111 70.784-75.1152 48.7131-75.1152Z"/>
  </g>
  <g id="Regular-S" transform="matrix(1 0 0 1 1401.32 696)">
   <path class="monochrome-0 multicolor-0:custom SFSymbolsPreview24292F" d="M48.2127-74.6582C26.3521-74.6582 8.68-56.7833 8.68-34.6696C8.68-16.9929 20.0031-2.02994 35.7113 3.26591C37.6753 3.66403 38.3947 2.40548 38.3947 1.34679C38.3947 0.419736 38.3299-2.75794 38.3299-6.06886C27.3329-3.685 25.0428-10.8358 25.0428-10.8358C23.2756-15.4703 20.657-16.6614 20.657-16.6614C17.0577-19.1111 20.9192-19.1111 20.9192-19.1111C24.9118-18.8462 27.0068-15.0063 27.0068-15.0063C30.5406-8.91585 36.2349-10.6367 38.5257-11.6962C38.8527-14.2783 39.9006-16.0658 41.0132-17.0587C32.2423-17.9857 23.0142-21.4283 23.0142-36.7885C23.0142-41.1582 24.584-44.7331 27.0715-47.5135C26.679-48.5064 25.3042-52.6119 27.4648-58.1068C27.4648-58.1068 30.8027-59.1663 38.3291-54.0021C41.5514-54.8774 44.8745-55.3227 48.2127-55.3265C51.5506-55.3265 54.9533-54.8625 58.0955-54.0021C65.6226-59.1663 68.9606-58.1068 68.9606-58.1068C71.1212-52.6119 69.7455-48.5064 69.353-47.5135C71.9061-44.7331 73.4112-41.1582 73.4112-36.7885C73.4112-21.4283 64.1831-18.0524 55.3466-17.0587C56.787-15.8009 58.0299-13.4179 58.0299-9.64385C58.0299-4.28137 57.9652 0.0224252 57.9652 1.34598C57.9652 2.40548 58.6854 3.66403 60.6485 3.26672C76.3567-2.03075 87.68-16.9929 87.68-34.6696C87.7446-56.7833 70.0077-74.6582 48.2127-74.6582Z"/>
  </g>
  <g id="Light-S" transform="matrix(1 0 0 1 1105.61 696)">
   <path class="monochrome-0 multicolor-0:custom SFSymbolsPreview24292F" d="M47.2119-73.9316C25.9047-73.9316 8.68-56.515 8.68-34.9683C8.68-17.7449 19.7165-3.1656 35.027 1.99446C36.9412 2.38237 37.6424 1.15609 37.6424 0.124549C37.6424-0.778739 37.5793-3.87493 37.5793-7.10096C26.8607-4.77822 24.6286-11.7457 24.6286-11.7457C22.906-16.2613 20.3538-17.4219 20.3538-17.4219C16.8456-19.8087 20.6093-19.8087 20.6093-19.8087C24.5008-19.5507 26.5428-15.8093 26.5428-15.8093C29.9871-9.87495 35.5373-11.5517 37.7702-12.584C38.0888-15.0999 39.1102-16.8416 40.1947-17.809C31.6458-18.7123 22.6513-22.0666 22.6513-37.033C22.6513-41.2905 24.1814-44.7738 26.6059-47.4829C26.2234-48.4503 24.8834-52.4506 26.9892-57.8046C26.9892-57.8046 30.2427-58.837 37.5785-53.8051C40.7192-54.658 43.9582-55.0919 47.2119-55.0956C50.4653-55.0956 53.7818-54.6435 56.8444-53.8051C64.181-58.837 67.4345-57.8046 67.4345-57.8046C69.5404-52.4506 68.1995-48.4503 67.817-47.4829C70.3054-44.7738 71.7724-41.2905 71.7724-37.033C71.7724-22.0666 62.7779-18.7772 54.1652-17.809C55.5691-16.5835 56.7805-14.2616 56.7805-10.5843C56.7805-5.3593 56.7174-1.16586 56.7174 0.123757C56.7174 1.15609 57.4194 2.38237 59.3328 1.99525C74.6433-3.1664 85.68-17.7449 85.68-34.9683C85.7429-56.515 68.4551-73.9316 47.2119-73.9316Z"/>
  </g>
  <g id="Thin-S" transform="matrix(1 0 0 1 809.897 696)">
   <path class="monochrome-0 multicolor-0:custom SFSymbolsPreview24292F" d="M46.211-72.9707C25.4573-72.9707 8.68-56.0124 8.68-35.0328C8.68-18.2626 19.4298-4.06697 34.3427 0.957303C36.2072 1.33501 36.8901 0.140994 36.8901-0.863397C36.8901-1.74291 36.8287-4.75763 36.8287-7.89876C26.3884-5.63715 24.2143-12.4212 24.2143-12.4212C22.5365-16.818 20.0505-17.9481 20.0505-17.9481C16.6335-20.2721 20.2995-20.2721 20.2995-20.2721C24.0899-20.0208 26.0788-16.3779 26.0788-16.3779C29.4337-10.5998 34.8397-12.2324 37.0146-13.2375C37.3249-15.6872 38.3198-17.3831 39.3761-18.325C31.0493-19.2045 22.2884-22.4705 22.2884-37.0431C22.2884-41.1886 23.7788-44.5803 26.1403-47.218C25.7677-48.16 24.4625-52.055 26.5137-57.2681C26.5137-57.2681 29.6826-58.2733 36.8279-53.3739C39.887-54.2043 43.0419-54.6268 46.211-54.6303C49.38-54.6303 52.6104-54.1902 55.5934-53.3739C62.7395-58.2733 65.9084-57.2681 65.9084-57.2681C67.9596-52.055 66.6536-48.16 66.281-47.218C68.7048-44.5803 70.1337-41.1886 70.1337-37.0431C70.1337-22.4705 61.3728-19.2677 52.9837-18.325C54.3512-17.1318 55.5312-14.8709 55.5312-11.2904C55.5312-6.20294 55.4697-2.11985 55.4697-0.864168C55.4697 0.140994 56.1534 1.33501 58.0172 0.958074C72.93-4.06774 83.68-18.2626 83.68-35.0328C83.7413-56.0124 66.9025-72.9707 46.211-72.9707Z"/>
  </g>
  <g id="Ultralight-S" transform="matrix(1 0 0 1 513.686 696)">
   <path class="monochrome-0 multicolor-0:custom SFSymbolsPreview24292F" d="M45.7106-72.4785C25.2336-72.4785 8.68-55.7494 8.68-35.0532C8.68-18.5097 19.2865-4.5059 34.0005 0.450476C35.8401 0.823079 36.514-0.354802 36.514-1.34562C36.514-2.21325 36.4533-5.18723 36.4533-8.28591C26.1523-6.05486 24.0072-12.7473 24.0072-12.7473C22.3518-17.0847 19.8989-18.1994 19.8989-18.1994C16.5274-20.4921 20.1445-20.4921 20.1445-20.4921C23.8844-20.2442 25.8469-16.6505 25.8469-16.6505C29.157-10.9504 34.4909-12.561 36.6368-13.5525C36.943-15.9691 37.9246-17.642 38.9668-18.5713C30.751-19.4389 22.107-22.6608 22.107-37.0364C22.107-41.1259 23.5774-44.4717 25.9075-47.0738C25.5399-48.0031 24.2521-51.8454 26.2759-56.9881C26.2759-56.9881 29.4026-57.9797 36.4526-53.1465C39.4709-53.9657 42.5837-54.3825 45.7106-54.386C48.8373-54.386 52.0246-53.9518 54.9679-53.1465C62.0187-57.9797 65.1454-56.9881 65.1454-56.9881C67.1692-51.8454 65.8806-48.0031 65.513-47.0738C67.9044-44.4717 69.3143-41.1259 69.3143-37.0364C69.3143-22.6608 60.6702-19.5013 52.393-18.5713C53.7422-17.3941 54.9065-15.1639 54.9065-11.6317C54.9065-6.613 54.8459-2.58509 54.8459-1.34638C54.8459-0.354802 55.5205 0.823079 57.3593 0.451237C72.0733-4.50666 82.68-18.5097 82.68-35.0532C82.7405-55.7494 66.1262-72.4785 45.7106-72.4785Z"/>
  </g>
 </g>
</svg>
