<svg id="edNS2hvt1PD1" xmlns="http://www.w3.org/2000/svg" xmlns:xlink="http://www.w3.org/1999/xlink" viewBox="0 0 120 120" shape-rendering="geometricPrecision" text-rendering="geometricPrecision" project-id="317c5da7a3284e178e5fd2fafd43d5ac" export-id="41162183627e4dc2b11b4c7feaafe09f" cached="false">
<style><![CDATA[
#edNS2hvt1PD11_ts {animation: edNS2hvt1PD11_ts__ts 1300ms linear infinite normal forwards}@keyframes edNS2hvt1PD11_ts__ts { 0% {transform: translate(50px,69.634804px) scale(1,1);animation-timing-function: cubic-bezier(0.39,0.575,0.565,1)} 15.384615% {transform: translate(50px,69.634804px) scale(1.2,1.2);animation-timing-function: cubic-bezier(0.39,0.575,0.565,1)} 38.461538% {transform: translate(50px,69.634804px) scale(1,1)} 100% {transform: translate(50px,69.634804px) scale(1,1)}} #edNS2hvt1PD13_ts {animation: edNS2hvt1PD13_ts__ts 1300ms linear infinite normal forwards}@keyframes edNS2hvt1PD13_ts__ts { 0% {transform: translate(70px,37.6348px) scale(1,1)} 30.769231% {transform: translate(70px,37.6348px) scale(1,1);animation-timing-function: cubic-bezier(0.39,0.575,0.565,1)} 46.153846% {transform: translate(70px,37.6348px) scale(1.2,1.2);animation-timing-function: cubic-bezier(0.39,0.575,0.565,1)} 69.230769% {transform: translate(70px,37.6348px) scale(1,1)} 100% {transform: translate(70px,37.6348px) scale(1,1)}} #edNS2hvt1PD15_ts {animation: edNS2hvt1PD15_ts__ts 1300ms linear infinite normal forwards}@keyframes edNS2hvt1PD15_ts__ts { 0% {transform: translate(90px,58.634798px) scale(1,1)} 15.384615% {transform: translate(90px,58.634798px) scale(1,1);animation-timing-function: cubic-bezier(0.39,0.575,0.565,1)} 30.769231% {transform: translate(90px,58.634798px) scale(1.2,1.2);animation-timing-function: cubic-bezier(0.39,0.575,0.565,1)} 53.846154% {transform: translate(90px,58.634798px) scale(1,1)} 100% {transform: translate(90px,58.634798px) scale(1,1)}}
]]></style>
<g transform="matrix(0.938408 0 0 0.93841 -5.688557 -13.572944)"><path d="M73.5367,13.0937L106.463,46.0524v.0033C108.41,48.0043,110,51.848,110,54.6007v30.0292c0,2.7527-2.25,5.0049-5,5.0049l-70-.0034c-2.75,0-5-2.2522-5-5.0048v-30.0292c0-2.7527,1.5933-6.5998,3.5367-8.545l32.93-32.9587c1.9433-1.9452,5.1266-1.9452,7.07,0Z" transform="matrix(1.598452 0 0 1.598452 -41.89164 -0.937304)" fill="#18bcf2"/><g transform="matrix(1.598452 0 0 1.598452 -41.89164 -0.937311)" mask="url(#edNS2hvt1PD16)"><g><path d="M70,89.6348l-20-20" fill="none" stroke="#f2f4f9" stroke-width="6" stroke-linecap="round" stroke-dasharray="28.29"/><g id="edNS2hvt1PD11_ts" transform="translate(50,69.634804) scale(1,1)"><circle r="7" transform="translate(0,-0.000004)" fill="#f2f4f9"/></g><path d="M70,89.6348v-52" fill="none" stroke="#f2f4f9" stroke-width="6" stroke-linecap="round" stroke-dasharray="52.1"/><g id="edNS2hvt1PD13_ts" transform="translate(70,37.6348) scale(1,1)"><circle r="7" transform="translate(0,0)" fill="#f2f4f9" stroke-dasharray="28,29"/></g><path d="M90,58.1348l-20,20" fill="none" stroke="#f2f4f9" stroke-width="6" stroke-linecap="round" stroke-dasharray="28,29"/><g id="edNS2hvt1PD15_ts" transform="translate(90,58.634798) scale(1,1)"><circle r="7" transform="translate(0,0.000002)" fill="#f2f4f9"/></g></g><mask id="edNS2hvt1PD16" mask-type="luminance" x="-150%" y="-150%" height="400%" width="400%"><path d="M73.5367,13.0937L106.463,46.0524v.0033C108.41,48.0043,110,51.848,110,54.6007v30.0292c0,2.7527-2.25,5.0049-5,5.0049l-70-.0034c-2.75,0-5-2.2522-5-5.0048v-30.0292c0-2.7527,1.5933-6.5998,3.5367-8.545l32.93-32.9587c1.9433-1.9452,5.1266-1.9452,7.07,0Z" fill="#f2f4f9"/></mask></g></g></svg>
